%TF.GenerationSoftware,KiCad,Pcbnew,(5.1.6)-1*%
%TF.CreationDate,2021-11-12T14:14:01-05:00*%
%TF.ProjectId,sevenLEDboard,73657665-6e4c-4454-9462-6f6172642e6b,rev?*%
%TF.SameCoordinates,Original*%
%TF.FileFunction,Soldermask,Top*%
%TF.FilePolarity,Negative*%
%FSLAX46Y46*%
G04 Gerber Fmt 4.6, Leading zero omitted, Abs format (unit mm)*
G04 Created by KiCad (PCBNEW (5.1.6)-1) date 2021-11-12 14:14:01*
%MOMM*%
%LPD*%
G01*
G04 APERTURE LIST*
%ADD10R,1.320000X0.750000*%
%ADD11R,0.550000X0.700000*%
G04 APERTURE END LIST*
D10*
%TO.C,U1*%
X139232000Y-77790000D03*
X139232000Y-79690000D03*
X136612000Y-79690000D03*
X136612000Y-78740000D03*
X136612000Y-77790000D03*
%TD*%
D11*
%TO.C,D8*%
X138938000Y-73736200D03*
X138938000Y-75836200D03*
%TD*%
%TO.C,L1*%
G36*
G01*
X142415000Y-72811200D02*
X142415000Y-74661200D01*
G75*
G02*
X141890000Y-75186200I-525000J0D01*
G01*
X140840000Y-75186200D01*
G75*
G02*
X140315000Y-74661200I0J525000D01*
G01*
X140315000Y-72811200D01*
G75*
G02*
X140840000Y-72286200I525000J0D01*
G01*
X141890000Y-72286200D01*
G75*
G02*
X142415000Y-72811200I0J-525000D01*
G01*
G37*
G36*
G01*
X150515000Y-72811200D02*
X150515000Y-74661200D01*
G75*
G02*
X149990000Y-75186200I-525000J0D01*
G01*
X148940000Y-75186200D01*
G75*
G02*
X148415000Y-74661200I0J525000D01*
G01*
X148415000Y-72811200D01*
G75*
G02*
X148940000Y-72286200I525000J0D01*
G01*
X149990000Y-72286200D01*
G75*
G02*
X150515000Y-72811200I0J-525000D01*
G01*
G37*
%TD*%
%TO.C,J1*%
G36*
G01*
X147222500Y-80695000D02*
X143607500Y-80695000D01*
G75*
G02*
X143265000Y-80352500I0J342500D01*
G01*
X143265000Y-79667500D01*
G75*
G02*
X143607500Y-79325000I342500J0D01*
G01*
X147222500Y-79325000D01*
G75*
G02*
X147565000Y-79667500I0J-342500D01*
G01*
X147565000Y-80352500D01*
G75*
G02*
X147222500Y-80695000I-342500J0D01*
G01*
G37*
G36*
G01*
X147222500Y-83235000D02*
X143607500Y-83235000D01*
G75*
G02*
X143265000Y-82892500I0J342500D01*
G01*
X143265000Y-82207500D01*
G75*
G02*
X143607500Y-81865000I342500J0D01*
G01*
X147222500Y-81865000D01*
G75*
G02*
X147565000Y-82207500I0J-342500D01*
G01*
X147565000Y-82892500D01*
G75*
G02*
X147222500Y-83235000I-342500J0D01*
G01*
G37*
G36*
G01*
X147222500Y-85775000D02*
X143607500Y-85775000D01*
G75*
G02*
X143265000Y-85432500I0J342500D01*
G01*
X143265000Y-84747500D01*
G75*
G02*
X143607500Y-84405000I342500J0D01*
G01*
X147222500Y-84405000D01*
G75*
G02*
X147565000Y-84747500I0J-342500D01*
G01*
X147565000Y-85432500D01*
G75*
G02*
X147222500Y-85775000I-342500J0D01*
G01*
G37*
%TD*%
%TO.C,R1*%
G36*
G01*
X141959250Y-80557500D02*
X140996750Y-80557500D01*
G75*
G02*
X140728000Y-80288750I0J268750D01*
G01*
X140728000Y-79751250D01*
G75*
G02*
X140996750Y-79482500I268750J0D01*
G01*
X141959250Y-79482500D01*
G75*
G02*
X142228000Y-79751250I0J-268750D01*
G01*
X142228000Y-80288750D01*
G75*
G02*
X141959250Y-80557500I-268750J0D01*
G01*
G37*
G36*
G01*
X141959250Y-82432500D02*
X140996750Y-82432500D01*
G75*
G02*
X140728000Y-82163750I0J268750D01*
G01*
X140728000Y-81626250D01*
G75*
G02*
X140996750Y-81357500I268750J0D01*
G01*
X141959250Y-81357500D01*
G75*
G02*
X142228000Y-81626250I0J-268750D01*
G01*
X142228000Y-82163750D01*
G75*
G02*
X141959250Y-82432500I-268750J0D01*
G01*
G37*
%TD*%
%TO.C,C1*%
G36*
G01*
X148870750Y-81349800D02*
X149833250Y-81349800D01*
G75*
G02*
X150102000Y-81618550I0J-268750D01*
G01*
X150102000Y-82156050D01*
G75*
G02*
X149833250Y-82424800I-268750J0D01*
G01*
X148870750Y-82424800D01*
G75*
G02*
X148602000Y-82156050I0J268750D01*
G01*
X148602000Y-81618550D01*
G75*
G02*
X148870750Y-81349800I268750J0D01*
G01*
G37*
G36*
G01*
X148870750Y-79474800D02*
X149833250Y-79474800D01*
G75*
G02*
X150102000Y-79743550I0J-268750D01*
G01*
X150102000Y-80281050D01*
G75*
G02*
X149833250Y-80549800I-268750J0D01*
G01*
X148870750Y-80549800D01*
G75*
G02*
X148602000Y-80281050I0J268750D01*
G01*
X148602000Y-79743550D01*
G75*
G02*
X148870750Y-79474800I268750J0D01*
G01*
G37*
%TD*%
M02*
