%TF.GenerationSoftware,KiCad,Pcbnew,(5.1.6)-1*%
%TF.CreationDate,2021-11-11T19:19:45-05:00*%
%TF.ProjectId,sevenLEDboard,73657665-6e4c-4454-9462-6f6172642e6b,rev?*%
%TF.SameCoordinates,Original*%
%TF.FileFunction,Copper,L1,Top*%
%TF.FilePolarity,Positive*%
%FSLAX46Y46*%
G04 Gerber Fmt 4.6, Leading zero omitted, Abs format (unit mm)*
G04 Created by KiCad (PCBNEW (5.1.6)-1) date 2021-11-11 19:19:45*
%MOMM*%
%LPD*%
G01*
G04 APERTURE LIST*
%TA.AperFunction,SMDPad,CuDef*%
%ADD10R,1.220000X0.650000*%
%TD*%
%TA.AperFunction,ViaPad*%
%ADD11C,1.000000*%
%TD*%
%TA.AperFunction,Conductor*%
%ADD12C,0.650000*%
%TD*%
%TA.AperFunction,Conductor*%
%ADD13C,1.000000*%
%TD*%
%TA.AperFunction,Conductor*%
%ADD14C,0.250000*%
%TD*%
%TA.AperFunction,Conductor*%
%ADD15C,0.254000*%
%TD*%
G04 APERTURE END LIST*
%TO.P,L1,2*%
%TO.N,Net-(L1-Pad2)*%
%TA.AperFunction,SMDPad,CuDef*%
G36*
G01*
X142380000Y-73100000D02*
X142380000Y-74900000D01*
G75*
G02*
X141880000Y-75400000I-500000J0D01*
G01*
X140880000Y-75400000D01*
G75*
G02*
X140380000Y-74900000I0J500000D01*
G01*
X140380000Y-73100000D01*
G75*
G02*
X140880000Y-72600000I500000J0D01*
G01*
X141880000Y-72600000D01*
G75*
G02*
X142380000Y-73100000I0J-500000D01*
G01*
G37*
%TD.AperFunction*%
%TO.P,L1,1*%
%TO.N,VS*%
%TA.AperFunction,SMDPad,CuDef*%
G36*
G01*
X150480000Y-73100000D02*
X150480000Y-74900000D01*
G75*
G02*
X149980000Y-75400000I-500000J0D01*
G01*
X148980000Y-75400000D01*
G75*
G02*
X148480000Y-74900000I0J500000D01*
G01*
X148480000Y-73100000D01*
G75*
G02*
X148980000Y-72600000I500000J0D01*
G01*
X149980000Y-72600000D01*
G75*
G02*
X150480000Y-73100000I0J-500000D01*
G01*
G37*
%TD.AperFunction*%
%TD*%
%TO.P,J1,3*%
%TO.N,VS*%
%TA.AperFunction,SMDPad,CuDef*%
G36*
G01*
X147335000Y-87380500D02*
X147335000Y-83815500D01*
G75*
G02*
X147652500Y-83498000I317500J0D01*
G01*
X148287500Y-83498000D01*
G75*
G02*
X148605000Y-83815500I0J-317500D01*
G01*
X148605000Y-87380500D01*
G75*
G02*
X148287500Y-87698000I-317500J0D01*
G01*
X147652500Y-87698000D01*
G75*
G02*
X147335000Y-87380500I0J317500D01*
G01*
G37*
%TD.AperFunction*%
%TO.P,J1,2*%
%TO.N,GND*%
%TA.AperFunction,SMDPad,CuDef*%
G36*
G01*
X144795000Y-87380500D02*
X144795000Y-83815500D01*
G75*
G02*
X145112500Y-83498000I317500J0D01*
G01*
X145747500Y-83498000D01*
G75*
G02*
X146065000Y-83815500I0J-317500D01*
G01*
X146065000Y-87380500D01*
G75*
G02*
X145747500Y-87698000I-317500J0D01*
G01*
X145112500Y-87698000D01*
G75*
G02*
X144795000Y-87380500I0J317500D01*
G01*
G37*
%TD.AperFunction*%
%TO.P,J1,1*%
%TO.N,Net-(J1-Pad1)*%
%TA.AperFunction,SMDPad,CuDef*%
G36*
G01*
X142255000Y-87380500D02*
X142255000Y-83815500D01*
G75*
G02*
X142572500Y-83498000I317500J0D01*
G01*
X143207500Y-83498000D01*
G75*
G02*
X143525000Y-83815500I0J-317500D01*
G01*
X143525000Y-87380500D01*
G75*
G02*
X143207500Y-87698000I-317500J0D01*
G01*
X142572500Y-87698000D01*
G75*
G02*
X142255000Y-87380500I0J317500D01*
G01*
G37*
%TD.AperFunction*%
%TD*%
D10*
%TO.P,U1,6*%
%TO.N,Net-(C2-Pad1)*%
X141290000Y-81976000D03*
%TO.P,U1,5*%
%TO.N,Net-(D1-Pad2)*%
X141290000Y-81026000D03*
%TO.P,U1,4*%
%TO.N,Net-(J1-Pad1)*%
X141290000Y-80076000D03*
%TO.P,U1,3*%
%TO.N,VS*%
X143910000Y-80076000D03*
%TO.P,U1,2*%
%TO.N,GND*%
X143910000Y-81026000D03*
%TO.P,U1,1*%
%TO.N,Net-(L1-Pad2)*%
X143910000Y-81976000D03*
%TD*%
%TO.P,R2,2*%
%TO.N,Net-(D1-Pad2)*%
%TA.AperFunction,SMDPad,CuDef*%
G36*
G01*
X137719750Y-82238000D02*
X138632250Y-82238000D01*
G75*
G02*
X138876000Y-82481750I0J-243750D01*
G01*
X138876000Y-82969250D01*
G75*
G02*
X138632250Y-83213000I-243750J0D01*
G01*
X137719750Y-83213000D01*
G75*
G02*
X137476000Y-82969250I0J243750D01*
G01*
X137476000Y-82481750D01*
G75*
G02*
X137719750Y-82238000I243750J0D01*
G01*
G37*
%TD.AperFunction*%
%TO.P,R2,1*%
%TO.N,Net-(C2-Pad1)*%
%TA.AperFunction,SMDPad,CuDef*%
G36*
G01*
X137719750Y-80363000D02*
X138632250Y-80363000D01*
G75*
G02*
X138876000Y-80606750I0J-243750D01*
G01*
X138876000Y-81094250D01*
G75*
G02*
X138632250Y-81338000I-243750J0D01*
G01*
X137719750Y-81338000D01*
G75*
G02*
X137476000Y-81094250I0J243750D01*
G01*
X137476000Y-80606750D01*
G75*
G02*
X137719750Y-80363000I243750J0D01*
G01*
G37*
%TD.AperFunction*%
%TD*%
%TO.P,R1,2*%
%TO.N,VS*%
%TA.AperFunction,SMDPad,CuDef*%
G36*
G01*
X151332250Y-84640000D02*
X150419750Y-84640000D01*
G75*
G02*
X150176000Y-84396250I0J243750D01*
G01*
X150176000Y-83908750D01*
G75*
G02*
X150419750Y-83665000I243750J0D01*
G01*
X151332250Y-83665000D01*
G75*
G02*
X151576000Y-83908750I0J-243750D01*
G01*
X151576000Y-84396250D01*
G75*
G02*
X151332250Y-84640000I-243750J0D01*
G01*
G37*
%TD.AperFunction*%
%TO.P,R1,1*%
%TO.N,Net-(J1-Pad1)*%
%TA.AperFunction,SMDPad,CuDef*%
G36*
G01*
X151332250Y-86515000D02*
X150419750Y-86515000D01*
G75*
G02*
X150176000Y-86271250I0J243750D01*
G01*
X150176000Y-85783750D01*
G75*
G02*
X150419750Y-85540000I243750J0D01*
G01*
X151332250Y-85540000D01*
G75*
G02*
X151576000Y-85783750I0J-243750D01*
G01*
X151576000Y-86271250D01*
G75*
G02*
X151332250Y-86515000I-243750J0D01*
G01*
G37*
%TD.AperFunction*%
%TD*%
%TO.P,C2,2*%
%TO.N,GND*%
%TA.AperFunction,SMDPad,CuDef*%
G36*
G01*
X138632250Y-77195500D02*
X137719750Y-77195500D01*
G75*
G02*
X137476000Y-76951750I0J243750D01*
G01*
X137476000Y-76464250D01*
G75*
G02*
X137719750Y-76220500I243750J0D01*
G01*
X138632250Y-76220500D01*
G75*
G02*
X138876000Y-76464250I0J-243750D01*
G01*
X138876000Y-76951750D01*
G75*
G02*
X138632250Y-77195500I-243750J0D01*
G01*
G37*
%TD.AperFunction*%
%TO.P,C2,1*%
%TO.N,Net-(C2-Pad1)*%
%TA.AperFunction,SMDPad,CuDef*%
G36*
G01*
X138632250Y-79070500D02*
X137719750Y-79070500D01*
G75*
G02*
X137476000Y-78826750I0J243750D01*
G01*
X137476000Y-78339250D01*
G75*
G02*
X137719750Y-78095500I243750J0D01*
G01*
X138632250Y-78095500D01*
G75*
G02*
X138876000Y-78339250I0J-243750D01*
G01*
X138876000Y-78826750D01*
G75*
G02*
X138632250Y-79070500I-243750J0D01*
G01*
G37*
%TD.AperFunction*%
%TD*%
%TO.P,C1,2*%
%TO.N,GND*%
%TA.AperFunction,SMDPad,CuDef*%
G36*
G01*
X146609750Y-81476000D02*
X147522250Y-81476000D01*
G75*
G02*
X147766000Y-81719750I0J-243750D01*
G01*
X147766000Y-82207250D01*
G75*
G02*
X147522250Y-82451000I-243750J0D01*
G01*
X146609750Y-82451000D01*
G75*
G02*
X146366000Y-82207250I0J243750D01*
G01*
X146366000Y-81719750D01*
G75*
G02*
X146609750Y-81476000I243750J0D01*
G01*
G37*
%TD.AperFunction*%
%TO.P,C1,1*%
%TO.N,VS*%
%TA.AperFunction,SMDPad,CuDef*%
G36*
G01*
X146609750Y-79601000D02*
X147522250Y-79601000D01*
G75*
G02*
X147766000Y-79844750I0J-243750D01*
G01*
X147766000Y-80332250D01*
G75*
G02*
X147522250Y-80576000I-243750J0D01*
G01*
X146609750Y-80576000D01*
G75*
G02*
X146366000Y-80332250I0J243750D01*
G01*
X146366000Y-79844750D01*
G75*
G02*
X146609750Y-79601000I243750J0D01*
G01*
G37*
%TD.AperFunction*%
%TD*%
D11*
%TO.N,GND*%
X145430000Y-81500000D03*
X150200000Y-69880000D03*
X153162000Y-74676000D03*
X145430000Y-82916000D03*
%TO.N,Net-(D1-Pad2)*%
X138900000Y-84802200D03*
X140716000Y-87630000D03*
%TD*%
D12*
%TO.N,GND*%
X147066000Y-81963500D02*
X145430000Y-81963500D01*
X145170000Y-81026000D02*
X145430000Y-81286000D01*
X143910000Y-81026000D02*
X145170000Y-81026000D01*
D13*
X138176000Y-76708000D02*
X138176000Y-73470518D01*
D12*
X138176000Y-73470518D02*
X138176000Y-73044000D01*
X141340000Y-69880000D02*
X141055000Y-70165000D01*
X150200000Y-69880000D02*
X141340000Y-69880000D01*
X138176000Y-73044000D02*
X141055000Y-70165000D01*
X144956000Y-81026000D02*
X143910000Y-81026000D01*
X145430000Y-81500000D02*
X144956000Y-81026000D01*
X145893500Y-81963500D02*
X145430000Y-81500000D01*
X147066000Y-81963500D02*
X145893500Y-81963500D01*
D13*
X145430000Y-85598000D02*
X145430000Y-82916000D01*
D14*
%TO.N,VS*%
X146537500Y-80076000D02*
X146550000Y-80088500D01*
X143550000Y-80076000D02*
X146537500Y-80076000D01*
D12*
X143922500Y-80088500D02*
X143910000Y-80076000D01*
X147066000Y-80088500D02*
X143922500Y-80088500D01*
X147066000Y-80088500D02*
X147066000Y-74634000D01*
X147700000Y-74000000D02*
X149480000Y-74000000D01*
X147066000Y-74634000D02*
X147700000Y-74000000D01*
D13*
X150876000Y-84152500D02*
X147970000Y-84152500D01*
%TO.N,Net-(C2-Pad1)*%
X138176000Y-78583000D02*
X138176000Y-80850500D01*
D12*
X139684998Y-81976000D02*
X138559498Y-80850500D01*
X141290000Y-81976000D02*
X139684998Y-81976000D01*
D14*
%TO.N,Net-(D1-Pad2)*%
X140070000Y-81026000D02*
X141290000Y-81026000D01*
X139201010Y-80157010D02*
X140070000Y-81026000D01*
X139201010Y-78103660D02*
X139201010Y-80157010D01*
X138855340Y-77757990D02*
X139201010Y-78103660D01*
X137150990Y-78103660D02*
X137496660Y-77757990D01*
X137150990Y-81940990D02*
X137150990Y-78103660D01*
X137496660Y-77757990D02*
X138855340Y-77757990D01*
X137935500Y-82725500D02*
X137150990Y-81940990D01*
X138176000Y-82725500D02*
X137935500Y-82725500D01*
D13*
X138176000Y-84078200D02*
X138900000Y-84802200D01*
X138176000Y-82725500D02*
X138176000Y-84078200D01*
D12*
%TO.N,Net-(L1-Pad2)*%
X142650000Y-81976000D02*
X142600000Y-81926000D01*
X143910000Y-81976000D02*
X142650000Y-81976000D01*
X141380000Y-78285998D02*
X141380000Y-74000000D01*
X142600000Y-79505998D02*
X141380000Y-78285998D01*
X142600000Y-81926000D02*
X142600000Y-79505998D01*
D14*
%TO.N,Net-(J1-Pad1)*%
X150876000Y-86027500D02*
X151172500Y-86027500D01*
X151112500Y-86027500D02*
X150876000Y-86027500D01*
X151901010Y-85238990D02*
X151112500Y-86027500D01*
X151901010Y-73854268D02*
X151901010Y-85238990D01*
X150321732Y-72274990D02*
X151901010Y-73854268D01*
X140538268Y-72274990D02*
X150321732Y-72274990D01*
X140054990Y-72758268D02*
X140538268Y-72274990D01*
X140054990Y-79124990D02*
X140054990Y-72758268D01*
X141006000Y-80076000D02*
X140054990Y-79124990D01*
X141290000Y-80076000D02*
X141006000Y-80076000D01*
X150876000Y-87122000D02*
X150876000Y-86027500D01*
X143903010Y-88023010D02*
X149974990Y-88023010D01*
X142890000Y-87010000D02*
X143903010Y-88023010D01*
X149974990Y-88023010D02*
X150876000Y-87122000D01*
X142890000Y-85598000D02*
X142890000Y-87010000D01*
%TD*%
D15*
%TO.N,VS*%
G36*
X147845000Y-73714250D02*
G01*
X148003750Y-73873000D01*
X149353000Y-73873000D01*
X149353000Y-73853000D01*
X149607000Y-73853000D01*
X149607000Y-73873000D01*
X149627000Y-73873000D01*
X149627000Y-74127000D01*
X149607000Y-74127000D01*
X149607000Y-75876250D01*
X149765750Y-76035000D01*
X150480000Y-76038072D01*
X150604482Y-76025812D01*
X150724180Y-75989502D01*
X150834494Y-75930537D01*
X150931185Y-75851185D01*
X151010537Y-75754494D01*
X151069502Y-75644180D01*
X151105812Y-75524482D01*
X151118072Y-75400000D01*
X151115000Y-74285750D01*
X150956252Y-74127002D01*
X151098942Y-74127002D01*
X151141010Y-74169070D01*
X151141011Y-83050739D01*
X151003000Y-83188750D01*
X151003000Y-84025500D01*
X151023000Y-84025500D01*
X151023000Y-84279500D01*
X151003000Y-84279500D01*
X151003000Y-84299500D01*
X150749000Y-84299500D01*
X150749000Y-84279500D01*
X149699750Y-84279500D01*
X149541000Y-84438250D01*
X149537928Y-84640000D01*
X149550188Y-84764482D01*
X149586498Y-84884180D01*
X149645463Y-84994494D01*
X149724815Y-85091185D01*
X149802564Y-85154992D01*
X149796208Y-85160208D01*
X149686542Y-85293836D01*
X149605053Y-85446291D01*
X149554872Y-85611715D01*
X149537928Y-85783750D01*
X149537928Y-86271250D01*
X149554872Y-86443285D01*
X149605053Y-86608709D01*
X149686542Y-86761164D01*
X149796208Y-86894792D01*
X149923742Y-86999457D01*
X149674199Y-87249000D01*
X149242311Y-87249000D01*
X149240000Y-85883750D01*
X149081250Y-85725000D01*
X148097000Y-85725000D01*
X148097000Y-85745000D01*
X147843000Y-85745000D01*
X147843000Y-85725000D01*
X147823000Y-85725000D01*
X147823000Y-85471000D01*
X147843000Y-85471000D01*
X147843000Y-85451000D01*
X148097000Y-85451000D01*
X148097000Y-85471000D01*
X149081250Y-85471000D01*
X149240000Y-85312250D01*
X149242789Y-83665000D01*
X149537928Y-83665000D01*
X149541000Y-83866750D01*
X149699750Y-84025500D01*
X150749000Y-84025500D01*
X150749000Y-83188750D01*
X150590250Y-83030000D01*
X150176000Y-83026928D01*
X150051518Y-83039188D01*
X149931820Y-83075498D01*
X149821506Y-83134463D01*
X149724815Y-83213815D01*
X149645463Y-83310506D01*
X149586498Y-83420820D01*
X149550188Y-83540518D01*
X149537928Y-83665000D01*
X149242789Y-83665000D01*
X149243072Y-83498000D01*
X149230812Y-83373518D01*
X149194502Y-83253820D01*
X149135537Y-83143506D01*
X149056185Y-83046815D01*
X148959494Y-82967463D01*
X148849180Y-82908498D01*
X148729482Y-82872188D01*
X148605000Y-82859928D01*
X148255750Y-82863000D01*
X148097002Y-83021748D01*
X148097002Y-82870833D01*
X148145792Y-82830792D01*
X148255458Y-82697164D01*
X148336947Y-82544709D01*
X148387128Y-82379285D01*
X148404072Y-82207250D01*
X148404072Y-81719750D01*
X148387128Y-81547715D01*
X148336947Y-81382291D01*
X148255458Y-81229836D01*
X148145792Y-81096208D01*
X148139436Y-81090992D01*
X148217185Y-81027185D01*
X148296537Y-80930494D01*
X148355502Y-80820180D01*
X148391812Y-80700482D01*
X148404072Y-80576000D01*
X148401000Y-80374250D01*
X148242250Y-80215500D01*
X147193000Y-80215500D01*
X147193000Y-80235500D01*
X146939000Y-80235500D01*
X146939000Y-80215500D01*
X145889750Y-80215500D01*
X145802263Y-80302987D01*
X145705928Y-80223927D01*
X145539154Y-80134784D01*
X145358193Y-80079890D01*
X145217162Y-80066000D01*
X145217152Y-80066000D01*
X145170000Y-80061356D01*
X145155000Y-80062833D01*
X145155000Y-79948998D01*
X144996252Y-79948998D01*
X145155000Y-79790250D01*
X145158072Y-79751000D01*
X145145812Y-79626518D01*
X145138072Y-79601000D01*
X145727928Y-79601000D01*
X145731000Y-79802750D01*
X145889750Y-79961500D01*
X146939000Y-79961500D01*
X146939000Y-79124750D01*
X147193000Y-79124750D01*
X147193000Y-79961500D01*
X148242250Y-79961500D01*
X148401000Y-79802750D01*
X148404072Y-79601000D01*
X148391812Y-79476518D01*
X148355502Y-79356820D01*
X148296537Y-79246506D01*
X148217185Y-79149815D01*
X148120494Y-79070463D01*
X148010180Y-79011498D01*
X147890482Y-78975188D01*
X147766000Y-78962928D01*
X147351750Y-78966000D01*
X147193000Y-79124750D01*
X146939000Y-79124750D01*
X146780250Y-78966000D01*
X146366000Y-78962928D01*
X146241518Y-78975188D01*
X146121820Y-79011498D01*
X146011506Y-79070463D01*
X145914815Y-79149815D01*
X145835463Y-79246506D01*
X145776498Y-79356820D01*
X145740188Y-79476518D01*
X145727928Y-79601000D01*
X145138072Y-79601000D01*
X145109502Y-79506820D01*
X145050537Y-79396506D01*
X144971185Y-79299815D01*
X144874494Y-79220463D01*
X144764180Y-79161498D01*
X144644482Y-79125188D01*
X144520000Y-79112928D01*
X144195750Y-79116000D01*
X144037000Y-79274750D01*
X144037000Y-79949000D01*
X144057000Y-79949000D01*
X144057000Y-80062928D01*
X143763000Y-80062928D01*
X143763000Y-79949000D01*
X143783000Y-79949000D01*
X143783000Y-79274750D01*
X143624250Y-79116000D01*
X143479341Y-79114627D01*
X143402073Y-78970070D01*
X143282107Y-78823891D01*
X143245474Y-78793827D01*
X142340000Y-77888354D01*
X142340000Y-75938357D01*
X142512279Y-75846272D01*
X142684738Y-75704738D01*
X142826272Y-75532279D01*
X142896976Y-75400000D01*
X147841928Y-75400000D01*
X147854188Y-75524482D01*
X147890498Y-75644180D01*
X147949463Y-75754494D01*
X148028815Y-75851185D01*
X148125506Y-75930537D01*
X148235820Y-75989502D01*
X148355518Y-76025812D01*
X148480000Y-76038072D01*
X149194250Y-76035000D01*
X149353000Y-75876250D01*
X149353000Y-74127000D01*
X148003750Y-74127000D01*
X147845000Y-74285750D01*
X147841928Y-75400000D01*
X142896976Y-75400000D01*
X142931441Y-75335521D01*
X142996204Y-75122027D01*
X143018072Y-74900000D01*
X143018072Y-73100000D01*
X143011669Y-73034990D01*
X147843127Y-73034990D01*
X147845000Y-73714250D01*
G37*
X147845000Y-73714250D02*
X148003750Y-73873000D01*
X149353000Y-73873000D01*
X149353000Y-73853000D01*
X149607000Y-73853000D01*
X149607000Y-73873000D01*
X149627000Y-73873000D01*
X149627000Y-74127000D01*
X149607000Y-74127000D01*
X149607000Y-75876250D01*
X149765750Y-76035000D01*
X150480000Y-76038072D01*
X150604482Y-76025812D01*
X150724180Y-75989502D01*
X150834494Y-75930537D01*
X150931185Y-75851185D01*
X151010537Y-75754494D01*
X151069502Y-75644180D01*
X151105812Y-75524482D01*
X151118072Y-75400000D01*
X151115000Y-74285750D01*
X150956252Y-74127002D01*
X151098942Y-74127002D01*
X151141010Y-74169070D01*
X151141011Y-83050739D01*
X151003000Y-83188750D01*
X151003000Y-84025500D01*
X151023000Y-84025500D01*
X151023000Y-84279500D01*
X151003000Y-84279500D01*
X151003000Y-84299500D01*
X150749000Y-84299500D01*
X150749000Y-84279500D01*
X149699750Y-84279500D01*
X149541000Y-84438250D01*
X149537928Y-84640000D01*
X149550188Y-84764482D01*
X149586498Y-84884180D01*
X149645463Y-84994494D01*
X149724815Y-85091185D01*
X149802564Y-85154992D01*
X149796208Y-85160208D01*
X149686542Y-85293836D01*
X149605053Y-85446291D01*
X149554872Y-85611715D01*
X149537928Y-85783750D01*
X149537928Y-86271250D01*
X149554872Y-86443285D01*
X149605053Y-86608709D01*
X149686542Y-86761164D01*
X149796208Y-86894792D01*
X149923742Y-86999457D01*
X149674199Y-87249000D01*
X149242311Y-87249000D01*
X149240000Y-85883750D01*
X149081250Y-85725000D01*
X148097000Y-85725000D01*
X148097000Y-85745000D01*
X147843000Y-85745000D01*
X147843000Y-85725000D01*
X147823000Y-85725000D01*
X147823000Y-85471000D01*
X147843000Y-85471000D01*
X147843000Y-85451000D01*
X148097000Y-85451000D01*
X148097000Y-85471000D01*
X149081250Y-85471000D01*
X149240000Y-85312250D01*
X149242789Y-83665000D01*
X149537928Y-83665000D01*
X149541000Y-83866750D01*
X149699750Y-84025500D01*
X150749000Y-84025500D01*
X150749000Y-83188750D01*
X150590250Y-83030000D01*
X150176000Y-83026928D01*
X150051518Y-83039188D01*
X149931820Y-83075498D01*
X149821506Y-83134463D01*
X149724815Y-83213815D01*
X149645463Y-83310506D01*
X149586498Y-83420820D01*
X149550188Y-83540518D01*
X149537928Y-83665000D01*
X149242789Y-83665000D01*
X149243072Y-83498000D01*
X149230812Y-83373518D01*
X149194502Y-83253820D01*
X149135537Y-83143506D01*
X149056185Y-83046815D01*
X148959494Y-82967463D01*
X148849180Y-82908498D01*
X148729482Y-82872188D01*
X148605000Y-82859928D01*
X148255750Y-82863000D01*
X148097002Y-83021748D01*
X148097002Y-82870833D01*
X148145792Y-82830792D01*
X148255458Y-82697164D01*
X148336947Y-82544709D01*
X148387128Y-82379285D01*
X148404072Y-82207250D01*
X148404072Y-81719750D01*
X148387128Y-81547715D01*
X148336947Y-81382291D01*
X148255458Y-81229836D01*
X148145792Y-81096208D01*
X148139436Y-81090992D01*
X148217185Y-81027185D01*
X148296537Y-80930494D01*
X148355502Y-80820180D01*
X148391812Y-80700482D01*
X148404072Y-80576000D01*
X148401000Y-80374250D01*
X148242250Y-80215500D01*
X147193000Y-80215500D01*
X147193000Y-80235500D01*
X146939000Y-80235500D01*
X146939000Y-80215500D01*
X145889750Y-80215500D01*
X145802263Y-80302987D01*
X145705928Y-80223927D01*
X145539154Y-80134784D01*
X145358193Y-80079890D01*
X145217162Y-80066000D01*
X145217152Y-80066000D01*
X145170000Y-80061356D01*
X145155000Y-80062833D01*
X145155000Y-79948998D01*
X144996252Y-79948998D01*
X145155000Y-79790250D01*
X145158072Y-79751000D01*
X145145812Y-79626518D01*
X145138072Y-79601000D01*
X145727928Y-79601000D01*
X145731000Y-79802750D01*
X145889750Y-79961500D01*
X146939000Y-79961500D01*
X146939000Y-79124750D01*
X147193000Y-79124750D01*
X147193000Y-79961500D01*
X148242250Y-79961500D01*
X148401000Y-79802750D01*
X148404072Y-79601000D01*
X148391812Y-79476518D01*
X148355502Y-79356820D01*
X148296537Y-79246506D01*
X148217185Y-79149815D01*
X148120494Y-79070463D01*
X148010180Y-79011498D01*
X147890482Y-78975188D01*
X147766000Y-78962928D01*
X147351750Y-78966000D01*
X147193000Y-79124750D01*
X146939000Y-79124750D01*
X146780250Y-78966000D01*
X146366000Y-78962928D01*
X146241518Y-78975188D01*
X146121820Y-79011498D01*
X146011506Y-79070463D01*
X145914815Y-79149815D01*
X145835463Y-79246506D01*
X145776498Y-79356820D01*
X145740188Y-79476518D01*
X145727928Y-79601000D01*
X145138072Y-79601000D01*
X145109502Y-79506820D01*
X145050537Y-79396506D01*
X144971185Y-79299815D01*
X144874494Y-79220463D01*
X144764180Y-79161498D01*
X144644482Y-79125188D01*
X144520000Y-79112928D01*
X144195750Y-79116000D01*
X144037000Y-79274750D01*
X144037000Y-79949000D01*
X144057000Y-79949000D01*
X144057000Y-80062928D01*
X143763000Y-80062928D01*
X143763000Y-79949000D01*
X143783000Y-79949000D01*
X143783000Y-79274750D01*
X143624250Y-79116000D01*
X143479341Y-79114627D01*
X143402073Y-78970070D01*
X143282107Y-78823891D01*
X143245474Y-78793827D01*
X142340000Y-77888354D01*
X142340000Y-75938357D01*
X142512279Y-75846272D01*
X142684738Y-75704738D01*
X142826272Y-75532279D01*
X142896976Y-75400000D01*
X147841928Y-75400000D01*
X147854188Y-75524482D01*
X147890498Y-75644180D01*
X147949463Y-75754494D01*
X148028815Y-75851185D01*
X148125506Y-75930537D01*
X148235820Y-75989502D01*
X148355518Y-76025812D01*
X148480000Y-76038072D01*
X149194250Y-76035000D01*
X149353000Y-75876250D01*
X149353000Y-74127000D01*
X148003750Y-74127000D01*
X147845000Y-74285750D01*
X147841928Y-75400000D01*
X142896976Y-75400000D01*
X142931441Y-75335521D01*
X142996204Y-75122027D01*
X143018072Y-74900000D01*
X143018072Y-73100000D01*
X143011669Y-73034990D01*
X147843127Y-73034990D01*
X147845000Y-73714250D01*
%TO.N,GND*%
G36*
X145776498Y-81231820D02*
G01*
X145740188Y-81351518D01*
X145727928Y-81476000D01*
X145731000Y-81677750D01*
X145889750Y-81836500D01*
X146939000Y-81836500D01*
X146939000Y-82090500D01*
X145889750Y-82090500D01*
X145731000Y-82249250D01*
X145727928Y-82451000D01*
X145740188Y-82575482D01*
X145776498Y-82695180D01*
X145835463Y-82805494D01*
X145881461Y-82861542D01*
X145715750Y-82863000D01*
X145557000Y-83021750D01*
X145557000Y-85471000D01*
X145577000Y-85471000D01*
X145577000Y-85725000D01*
X145557000Y-85725000D01*
X145557000Y-85745000D01*
X145303000Y-85745000D01*
X145303000Y-85725000D01*
X145283000Y-85725000D01*
X145283000Y-85471000D01*
X145303000Y-85471000D01*
X145303000Y-83021750D01*
X145144250Y-82863000D01*
X144820952Y-82860156D01*
X144874494Y-82831537D01*
X144971185Y-82752185D01*
X145050537Y-82655494D01*
X145109502Y-82545180D01*
X145145812Y-82425482D01*
X145158072Y-82301000D01*
X145158072Y-81651000D01*
X145145812Y-81526518D01*
X145138071Y-81501000D01*
X145145812Y-81475482D01*
X145158072Y-81351000D01*
X145155000Y-81311750D01*
X144996252Y-81153002D01*
X145155000Y-81153002D01*
X145155000Y-81153000D01*
X145818629Y-81153000D01*
X145776498Y-81231820D01*
G37*
X145776498Y-81231820D02*
X145740188Y-81351518D01*
X145727928Y-81476000D01*
X145731000Y-81677750D01*
X145889750Y-81836500D01*
X146939000Y-81836500D01*
X146939000Y-82090500D01*
X145889750Y-82090500D01*
X145731000Y-82249250D01*
X145727928Y-82451000D01*
X145740188Y-82575482D01*
X145776498Y-82695180D01*
X145835463Y-82805494D01*
X145881461Y-82861542D01*
X145715750Y-82863000D01*
X145557000Y-83021750D01*
X145557000Y-85471000D01*
X145577000Y-85471000D01*
X145577000Y-85725000D01*
X145557000Y-85725000D01*
X145557000Y-85745000D01*
X145303000Y-85745000D01*
X145303000Y-85725000D01*
X145283000Y-85725000D01*
X145283000Y-85471000D01*
X145303000Y-85471000D01*
X145303000Y-83021750D01*
X145144250Y-82863000D01*
X144820952Y-82860156D01*
X144874494Y-82831537D01*
X144971185Y-82752185D01*
X145050537Y-82655494D01*
X145109502Y-82545180D01*
X145145812Y-82425482D01*
X145158072Y-82301000D01*
X145158072Y-81651000D01*
X145145812Y-81526518D01*
X145138071Y-81501000D01*
X145145812Y-81475482D01*
X145158072Y-81351000D01*
X145155000Y-81311750D01*
X144996252Y-81153002D01*
X145155000Y-81153002D01*
X145155000Y-81153000D01*
X145818629Y-81153000D01*
X145776498Y-81231820D01*
G36*
X156214914Y-78740000D02*
G01*
X152661010Y-84896080D01*
X152661010Y-73891590D01*
X152664686Y-73854267D01*
X152661010Y-73816944D01*
X152661010Y-73816935D01*
X152650013Y-73705282D01*
X152606556Y-73562021D01*
X152535984Y-73429992D01*
X152441011Y-73314267D01*
X152412014Y-73290470D01*
X150885536Y-71763993D01*
X150861733Y-71734989D01*
X150746008Y-71640016D01*
X150613979Y-71569444D01*
X150470718Y-71525987D01*
X150359065Y-71514990D01*
X150359054Y-71514990D01*
X150321732Y-71511314D01*
X150284410Y-71514990D01*
X140575590Y-71514990D01*
X140538267Y-71511314D01*
X140500944Y-71514990D01*
X140500935Y-71514990D01*
X140389282Y-71525987D01*
X140246021Y-71569444D01*
X140113992Y-71640016D01*
X139998267Y-71734989D01*
X139974464Y-71763993D01*
X139543988Y-72194469D01*
X139514990Y-72218267D01*
X139491192Y-72247265D01*
X139491191Y-72247266D01*
X139420016Y-72333992D01*
X139349444Y-72466022D01*
X139305988Y-72609283D01*
X139291314Y-72758268D01*
X139294991Y-72795600D01*
X139294991Y-75742894D01*
X139230494Y-75689963D01*
X139120180Y-75630998D01*
X139000482Y-75594688D01*
X138876000Y-75582428D01*
X138461750Y-75585500D01*
X138303000Y-75744250D01*
X138303000Y-76581000D01*
X138323000Y-76581000D01*
X138323000Y-76835000D01*
X138303000Y-76835000D01*
X138303000Y-76855000D01*
X138049000Y-76855000D01*
X138049000Y-76835000D01*
X136999750Y-76835000D01*
X136841000Y-76993750D01*
X136837928Y-77195500D01*
X136850188Y-77319982D01*
X136852441Y-77327408D01*
X136639988Y-77539861D01*
X136610990Y-77563659D01*
X136587192Y-77592657D01*
X136587191Y-77592658D01*
X136516016Y-77679384D01*
X136445444Y-77811414D01*
X136442442Y-77821312D01*
X136401989Y-77954673D01*
X136401988Y-77954675D01*
X136387314Y-78103660D01*
X136390991Y-78140992D01*
X136390990Y-81764260D01*
X134645085Y-78740000D01*
X136099592Y-76220500D01*
X136837928Y-76220500D01*
X136841000Y-76422250D01*
X136999750Y-76581000D01*
X138049000Y-76581000D01*
X138049000Y-75744250D01*
X137890250Y-75585500D01*
X137476000Y-75582428D01*
X137351518Y-75594688D01*
X137231820Y-75630998D01*
X137121506Y-75689963D01*
X137024815Y-75769315D01*
X136945463Y-75866006D01*
X136886498Y-75976320D01*
X136850188Y-76096018D01*
X136837928Y-76220500D01*
X136099592Y-76220500D01*
X140037068Y-69400000D01*
X150822933Y-69400000D01*
X156214914Y-78740000D01*
G37*
X156214914Y-78740000D02*
X152661010Y-84896080D01*
X152661010Y-73891590D01*
X152664686Y-73854267D01*
X152661010Y-73816944D01*
X152661010Y-73816935D01*
X152650013Y-73705282D01*
X152606556Y-73562021D01*
X152535984Y-73429992D01*
X152441011Y-73314267D01*
X152412014Y-73290470D01*
X150885536Y-71763993D01*
X150861733Y-71734989D01*
X150746008Y-71640016D01*
X150613979Y-71569444D01*
X150470718Y-71525987D01*
X150359065Y-71514990D01*
X150359054Y-71514990D01*
X150321732Y-71511314D01*
X150284410Y-71514990D01*
X140575590Y-71514990D01*
X140538267Y-71511314D01*
X140500944Y-71514990D01*
X140500935Y-71514990D01*
X140389282Y-71525987D01*
X140246021Y-71569444D01*
X140113992Y-71640016D01*
X139998267Y-71734989D01*
X139974464Y-71763993D01*
X139543988Y-72194469D01*
X139514990Y-72218267D01*
X139491192Y-72247265D01*
X139491191Y-72247266D01*
X139420016Y-72333992D01*
X139349444Y-72466022D01*
X139305988Y-72609283D01*
X139291314Y-72758268D01*
X139294991Y-72795600D01*
X139294991Y-75742894D01*
X139230494Y-75689963D01*
X139120180Y-75630998D01*
X139000482Y-75594688D01*
X138876000Y-75582428D01*
X138461750Y-75585500D01*
X138303000Y-75744250D01*
X138303000Y-76581000D01*
X138323000Y-76581000D01*
X138323000Y-76835000D01*
X138303000Y-76835000D01*
X138303000Y-76855000D01*
X138049000Y-76855000D01*
X138049000Y-76835000D01*
X136999750Y-76835000D01*
X136841000Y-76993750D01*
X136837928Y-77195500D01*
X136850188Y-77319982D01*
X136852441Y-77327408D01*
X136639988Y-77539861D01*
X136610990Y-77563659D01*
X136587192Y-77592657D01*
X136587191Y-77592658D01*
X136516016Y-77679384D01*
X136445444Y-77811414D01*
X136442442Y-77821312D01*
X136401989Y-77954673D01*
X136401988Y-77954675D01*
X136387314Y-78103660D01*
X136390991Y-78140992D01*
X136390990Y-81764260D01*
X134645085Y-78740000D01*
X136099592Y-76220500D01*
X136837928Y-76220500D01*
X136841000Y-76422250D01*
X136999750Y-76581000D01*
X138049000Y-76581000D01*
X138049000Y-75744250D01*
X137890250Y-75585500D01*
X137476000Y-75582428D01*
X137351518Y-75594688D01*
X137231820Y-75630998D01*
X137121506Y-75689963D01*
X137024815Y-75769315D01*
X136945463Y-75866006D01*
X136886498Y-75976320D01*
X136850188Y-76096018D01*
X136837928Y-76220500D01*
X136099592Y-76220500D01*
X140037068Y-69400000D01*
X150822933Y-69400000D01*
X156214914Y-78740000D01*
%TO.N,Net-(D1-Pad2)*%
G36*
X138323000Y-82852500D02*
G01*
X138303000Y-82852500D01*
X138303000Y-83689250D01*
X138461750Y-83848000D01*
X138876000Y-83851072D01*
X139000482Y-83838812D01*
X139120180Y-83802502D01*
X139230494Y-83743537D01*
X139327185Y-83664185D01*
X139406537Y-83567494D01*
X139465502Y-83457180D01*
X139501812Y-83337482D01*
X139514072Y-83213000D01*
X139511000Y-83011250D01*
X139389226Y-82889476D01*
X139496805Y-82922110D01*
X139637836Y-82936000D01*
X139637845Y-82936000D01*
X139684997Y-82940644D01*
X139732149Y-82936000D01*
X140648808Y-82936000D01*
X140680000Y-82939072D01*
X141900000Y-82939072D01*
X141973000Y-82931882D01*
X141973000Y-83077280D01*
X141896809Y-83139809D01*
X141777971Y-83284613D01*
X141689667Y-83449818D01*
X141635289Y-83629077D01*
X141616928Y-83815500D01*
X141616928Y-87380500D01*
X141635289Y-87566923D01*
X141689667Y-87746182D01*
X141777971Y-87911387D01*
X141896809Y-88056191D01*
X141925820Y-88080000D01*
X140037068Y-88080000D01*
X137595197Y-83850188D01*
X137890250Y-83848000D01*
X138049000Y-83689250D01*
X138049000Y-82852500D01*
X138029000Y-82852500D01*
X138029000Y-82727000D01*
X138323000Y-82727000D01*
X138323000Y-82852500D01*
G37*
X138323000Y-82852500D02*
X138303000Y-82852500D01*
X138303000Y-83689250D01*
X138461750Y-83848000D01*
X138876000Y-83851072D01*
X139000482Y-83838812D01*
X139120180Y-83802502D01*
X139230494Y-83743537D01*
X139327185Y-83664185D01*
X139406537Y-83567494D01*
X139465502Y-83457180D01*
X139501812Y-83337482D01*
X139514072Y-83213000D01*
X139511000Y-83011250D01*
X139389226Y-82889476D01*
X139496805Y-82922110D01*
X139637836Y-82936000D01*
X139637845Y-82936000D01*
X139684997Y-82940644D01*
X139732149Y-82936000D01*
X140648808Y-82936000D01*
X140680000Y-82939072D01*
X141900000Y-82939072D01*
X141973000Y-82931882D01*
X141973000Y-83077280D01*
X141896809Y-83139809D01*
X141777971Y-83284613D01*
X141689667Y-83449818D01*
X141635289Y-83629077D01*
X141616928Y-83815500D01*
X141616928Y-87380500D01*
X141635289Y-87566923D01*
X141689667Y-87746182D01*
X141777971Y-87911387D01*
X141896809Y-88056191D01*
X141925820Y-88080000D01*
X140037068Y-88080000D01*
X137595197Y-83850188D01*
X137890250Y-83848000D01*
X138049000Y-83689250D01*
X138049000Y-82852500D01*
X138029000Y-82852500D01*
X138029000Y-82727000D01*
X138323000Y-82727000D01*
X138323000Y-82852500D01*
%TD*%
M02*
