%TF.GenerationSoftware,KiCad,Pcbnew,(5.1.6)-1*%
%TF.CreationDate,2021-11-11T19:19:45-05:00*%
%TF.ProjectId,sevenLEDboard,73657665-6e4c-4454-9462-6f6172642e6b,rev?*%
%TF.SameCoordinates,Original*%
%TF.FileFunction,Copper,L2,Bot*%
%TF.FilePolarity,Positive*%
%FSLAX46Y46*%
G04 Gerber Fmt 4.6, Leading zero omitted, Abs format (unit mm)*
G04 Created by KiCad (PCBNEW (5.1.6)-1) date 2021-11-11 19:19:45*
%MOMM*%
%LPD*%
G01*
G04 APERTURE LIST*
%TA.AperFunction,ViaPad*%
%ADD10C,1.000000*%
%TD*%
%TA.AperFunction,Conductor*%
%ADD11C,0.650000*%
%TD*%
%TA.AperFunction,Conductor*%
%ADD12C,0.850000*%
%TD*%
%TA.AperFunction,Conductor*%
%ADD13C,1.000000*%
%TD*%
%TA.AperFunction,Conductor*%
%ADD14C,0.254000*%
%TD*%
G04 APERTURE END LIST*
%TO.P,D7,2*%
%TO.N,Net-(D6-Pad1)*%
%TA.AperFunction,SMDPad,CuDef*%
G36*
G01*
X148295000Y-70895300D02*
X148295000Y-74460300D01*
G75*
G02*
X147977500Y-74777800I-317500J0D01*
G01*
X147342500Y-74777800D01*
G75*
G02*
X147025000Y-74460300I0J317500D01*
G01*
X147025000Y-70895300D01*
G75*
G02*
X147342500Y-70577800I317500J0D01*
G01*
X147977500Y-70577800D01*
G75*
G02*
X148295000Y-70895300I0J-317500D01*
G01*
G37*
%TD.AperFunction*%
%TO.P,D7,1*%
%TO.N,GND*%
%TA.AperFunction,SMDPad,CuDef*%
G36*
G01*
X150835000Y-70895300D02*
X150835000Y-74460300D01*
G75*
G02*
X150517500Y-74777800I-317500J0D01*
G01*
X149882500Y-74777800D01*
G75*
G02*
X149565000Y-74460300I0J317500D01*
G01*
X149565000Y-70895300D01*
G75*
G02*
X149882500Y-70577800I317500J0D01*
G01*
X150517500Y-70577800D01*
G75*
G02*
X150835000Y-70895300I0J-317500D01*
G01*
G37*
%TD.AperFunction*%
%TD*%
%TO.P,D1,2*%
%TO.N,Net-(D1-Pad2)*%
%TA.AperFunction,SMDPad,CuDef*%
G36*
G01*
X141295000Y-83019700D02*
X141295000Y-86584700D01*
G75*
G02*
X140977500Y-86902200I-317500J0D01*
G01*
X140342500Y-86902200D01*
G75*
G02*
X140025000Y-86584700I0J317500D01*
G01*
X140025000Y-83019700D01*
G75*
G02*
X140342500Y-82702200I317500J0D01*
G01*
X140977500Y-82702200D01*
G75*
G02*
X141295000Y-83019700I0J-317500D01*
G01*
G37*
%TD.AperFunction*%
%TO.P,D1,1*%
%TO.N,Net-(D1-Pad1)*%
%TA.AperFunction,SMDPad,CuDef*%
G36*
G01*
X143835000Y-83019700D02*
X143835000Y-86584700D01*
G75*
G02*
X143517500Y-86902200I-317500J0D01*
G01*
X142882500Y-86902200D01*
G75*
G02*
X142565000Y-86584700I0J317500D01*
G01*
X142565000Y-83019700D01*
G75*
G02*
X142882500Y-82702200I317500J0D01*
G01*
X143517500Y-82702200D01*
G75*
G02*
X143835000Y-83019700I0J-317500D01*
G01*
G37*
%TD.AperFunction*%
%TD*%
%TO.P,D2,2*%
%TO.N,Net-(D1-Pad1)*%
%TA.AperFunction,SMDPad,CuDef*%
G36*
G01*
X148295000Y-83019700D02*
X148295000Y-86584700D01*
G75*
G02*
X147977500Y-86902200I-317500J0D01*
G01*
X147342500Y-86902200D01*
G75*
G02*
X147025000Y-86584700I0J317500D01*
G01*
X147025000Y-83019700D01*
G75*
G02*
X147342500Y-82702200I317500J0D01*
G01*
X147977500Y-82702200D01*
G75*
G02*
X148295000Y-83019700I0J-317500D01*
G01*
G37*
%TD.AperFunction*%
%TO.P,D2,1*%
%TO.N,Net-(D2-Pad1)*%
%TA.AperFunction,SMDPad,CuDef*%
G36*
G01*
X150835000Y-83019700D02*
X150835000Y-86584700D01*
G75*
G02*
X150517500Y-86902200I-317500J0D01*
G01*
X149882500Y-86902200D01*
G75*
G02*
X149565000Y-86584700I0J317500D01*
G01*
X149565000Y-83019700D01*
G75*
G02*
X149882500Y-82702200I317500J0D01*
G01*
X150517500Y-82702200D01*
G75*
G02*
X150835000Y-83019700I0J-317500D01*
G01*
G37*
%TD.AperFunction*%
%TD*%
%TO.P,D3,2*%
%TO.N,Net-(D2-Pad1)*%
%TA.AperFunction,SMDPad,CuDef*%
G36*
G01*
X153065000Y-80522500D02*
X153065000Y-76957500D01*
G75*
G02*
X153382500Y-76640000I317500J0D01*
G01*
X154017500Y-76640000D01*
G75*
G02*
X154335000Y-76957500I0J-317500D01*
G01*
X154335000Y-80522500D01*
G75*
G02*
X154017500Y-80840000I-317500J0D01*
G01*
X153382500Y-80840000D01*
G75*
G02*
X153065000Y-80522500I0J317500D01*
G01*
G37*
%TD.AperFunction*%
%TO.P,D3,1*%
%TO.N,Net-(D3-Pad1)*%
%TA.AperFunction,SMDPad,CuDef*%
G36*
G01*
X150525000Y-80522500D02*
X150525000Y-76957500D01*
G75*
G02*
X150842500Y-76640000I317500J0D01*
G01*
X151477500Y-76640000D01*
G75*
G02*
X151795000Y-76957500I0J-317500D01*
G01*
X151795000Y-80522500D01*
G75*
G02*
X151477500Y-80840000I-317500J0D01*
G01*
X150842500Y-80840000D01*
G75*
G02*
X150525000Y-80522500I0J317500D01*
G01*
G37*
%TD.AperFunction*%
%TD*%
%TO.P,D4,2*%
%TO.N,Net-(D3-Pad1)*%
%TA.AperFunction,SMDPad,CuDef*%
G36*
G01*
X146065000Y-80522500D02*
X146065000Y-76957500D01*
G75*
G02*
X146382500Y-76640000I317500J0D01*
G01*
X147017500Y-76640000D01*
G75*
G02*
X147335000Y-76957500I0J-317500D01*
G01*
X147335000Y-80522500D01*
G75*
G02*
X147017500Y-80840000I-317500J0D01*
G01*
X146382500Y-80840000D01*
G75*
G02*
X146065000Y-80522500I0J317500D01*
G01*
G37*
%TD.AperFunction*%
%TO.P,D4,1*%
%TO.N,Net-(D4-Pad1)*%
%TA.AperFunction,SMDPad,CuDef*%
G36*
G01*
X143525000Y-80522500D02*
X143525000Y-76957500D01*
G75*
G02*
X143842500Y-76640000I317500J0D01*
G01*
X144477500Y-76640000D01*
G75*
G02*
X144795000Y-76957500I0J-317500D01*
G01*
X144795000Y-80522500D01*
G75*
G02*
X144477500Y-80840000I-317500J0D01*
G01*
X143842500Y-80840000D01*
G75*
G02*
X143525000Y-80522500I0J317500D01*
G01*
G37*
%TD.AperFunction*%
%TD*%
%TO.P,D5,2*%
%TO.N,Net-(D4-Pad1)*%
%TA.AperFunction,SMDPad,CuDef*%
G36*
G01*
X139065000Y-80522500D02*
X139065000Y-76957500D01*
G75*
G02*
X139382500Y-76640000I317500J0D01*
G01*
X140017500Y-76640000D01*
G75*
G02*
X140335000Y-76957500I0J-317500D01*
G01*
X140335000Y-80522500D01*
G75*
G02*
X140017500Y-80840000I-317500J0D01*
G01*
X139382500Y-80840000D01*
G75*
G02*
X139065000Y-80522500I0J317500D01*
G01*
G37*
%TD.AperFunction*%
%TO.P,D5,1*%
%TO.N,Net-(D5-Pad1)*%
%TA.AperFunction,SMDPad,CuDef*%
G36*
G01*
X136525000Y-80522500D02*
X136525000Y-76957500D01*
G75*
G02*
X136842500Y-76640000I317500J0D01*
G01*
X137477500Y-76640000D01*
G75*
G02*
X137795000Y-76957500I0J-317500D01*
G01*
X137795000Y-80522500D01*
G75*
G02*
X137477500Y-80840000I-317500J0D01*
G01*
X136842500Y-80840000D01*
G75*
G02*
X136525000Y-80522500I0J317500D01*
G01*
G37*
%TD.AperFunction*%
%TD*%
%TO.P,D6,2*%
%TO.N,Net-(D5-Pad1)*%
%TA.AperFunction,SMDPad,CuDef*%
G36*
G01*
X141295000Y-70895300D02*
X141295000Y-74460300D01*
G75*
G02*
X140977500Y-74777800I-317500J0D01*
G01*
X140342500Y-74777800D01*
G75*
G02*
X140025000Y-74460300I0J317500D01*
G01*
X140025000Y-70895300D01*
G75*
G02*
X140342500Y-70577800I317500J0D01*
G01*
X140977500Y-70577800D01*
G75*
G02*
X141295000Y-70895300I0J-317500D01*
G01*
G37*
%TD.AperFunction*%
%TO.P,D6,1*%
%TO.N,Net-(D6-Pad1)*%
%TA.AperFunction,SMDPad,CuDef*%
G36*
G01*
X143835000Y-70895300D02*
X143835000Y-74460300D01*
G75*
G02*
X143517500Y-74777800I-317500J0D01*
G01*
X142882500Y-74777800D01*
G75*
G02*
X142565000Y-74460300I0J317500D01*
G01*
X142565000Y-70895300D01*
G75*
G02*
X142882500Y-70577800I317500J0D01*
G01*
X143517500Y-70577800D01*
G75*
G02*
X143835000Y-70895300I0J-317500D01*
G01*
G37*
%TD.AperFunction*%
%TD*%
D10*
%TO.N,GND*%
X145430000Y-81500000D03*
X150200000Y-69880000D03*
X153162000Y-74676000D03*
X145430000Y-82916000D03*
%TO.N,Net-(D1-Pad2)*%
X138900000Y-84802200D03*
X140716000Y-87630000D03*
%TD*%
D11*
%TO.N,GND*%
X145430000Y-76728510D02*
X145425000Y-76723510D01*
X150200000Y-74100000D02*
X150200000Y-72677800D01*
D12*
X148600000Y-75700000D02*
X150200000Y-74100000D01*
X146300000Y-75700000D02*
X148600000Y-75700000D01*
D11*
X145430000Y-76728510D02*
X145430000Y-76570000D01*
D13*
X150200000Y-72677800D02*
X150200000Y-69880000D01*
D12*
X145430000Y-76570000D02*
X146300000Y-75700000D01*
X145430000Y-81500000D02*
X145430000Y-76570000D01*
D13*
X145430000Y-81500000D02*
X145430000Y-82916000D01*
%TO.N,Net-(D1-Pad2)*%
X140002200Y-84802200D02*
X138900000Y-84802200D01*
X140660000Y-84802200D02*
X140002200Y-84802200D01*
X140002200Y-84802200D02*
X139192000Y-84802200D01*
%TO.N,Net-(D1-Pad1)*%
X143200000Y-84802200D02*
X147660000Y-84802200D01*
%TO.N,Net-(D2-Pad1)*%
X150200000Y-84802200D02*
X151797800Y-84802200D01*
X150200000Y-84802200D02*
X151697800Y-84802200D01*
X151697800Y-84802200D02*
X152400000Y-84100000D01*
X152400000Y-84100000D02*
X152400000Y-83600000D01*
X153700000Y-82300000D02*
X153700000Y-78740000D01*
X152400000Y-83600000D02*
X153700000Y-82300000D01*
%TO.N,Net-(D3-Pad1)*%
X146700000Y-78740000D02*
X151160000Y-78740000D01*
%TO.N,Net-(D4-Pad1)*%
X139700000Y-78740000D02*
X144160000Y-78740000D01*
%TO.N,Net-(D5-Pad1)*%
X137160000Y-78740000D02*
X137160000Y-75840000D01*
X137160000Y-75840000D02*
X138700000Y-74300000D01*
X138700000Y-74300000D02*
X138700000Y-72900000D01*
X138922200Y-72677800D02*
X140660000Y-72677800D01*
X138700000Y-72900000D02*
X138922200Y-72677800D01*
%TO.N,Net-(D6-Pad1)*%
X147660000Y-72677800D02*
X143200000Y-72677800D01*
%TD*%
D14*
%TO.N,Net-(D6-Pad1)*%
G36*
X148473000Y-69968223D02*
G01*
X148419482Y-69951988D01*
X148295000Y-69939728D01*
X147945750Y-69942800D01*
X147787000Y-70101550D01*
X147787000Y-72550800D01*
X147807000Y-72550800D01*
X147807000Y-72804800D01*
X147787000Y-72804800D01*
X147787000Y-72824800D01*
X147533000Y-72824800D01*
X147533000Y-72804800D01*
X146548750Y-72804800D01*
X146390000Y-72963550D01*
X146387161Y-74640000D01*
X146352058Y-74640000D01*
X146300000Y-74634873D01*
X146247942Y-74640000D01*
X146247934Y-74640000D01*
X146110319Y-74653554D01*
X146092203Y-74655338D01*
X145892393Y-74715950D01*
X145708247Y-74814378D01*
X145546841Y-74946841D01*
X145513651Y-74987284D01*
X145027935Y-75473000D01*
X142127000Y-75473000D01*
X142127000Y-75239806D01*
X142210506Y-75308337D01*
X142320820Y-75367302D01*
X142440518Y-75403612D01*
X142565000Y-75415872D01*
X142914250Y-75412800D01*
X143073000Y-75254050D01*
X143073000Y-72804800D01*
X143327000Y-72804800D01*
X143327000Y-75254050D01*
X143485750Y-75412800D01*
X143835000Y-75415872D01*
X143959482Y-75403612D01*
X144079180Y-75367302D01*
X144189494Y-75308337D01*
X144286185Y-75228985D01*
X144365537Y-75132294D01*
X144424502Y-75021980D01*
X144460812Y-74902282D01*
X144473072Y-74777800D01*
X144470000Y-72963550D01*
X144311250Y-72804800D01*
X143327000Y-72804800D01*
X143073000Y-72804800D01*
X143053000Y-72804800D01*
X143053000Y-72550800D01*
X143073000Y-72550800D01*
X143073000Y-70101550D01*
X143327000Y-70101550D01*
X143327000Y-72550800D01*
X144311250Y-72550800D01*
X144470000Y-72392050D01*
X144473072Y-70577800D01*
X146386928Y-70577800D01*
X146390000Y-72392050D01*
X146548750Y-72550800D01*
X147533000Y-72550800D01*
X147533000Y-70101550D01*
X147374250Y-69942800D01*
X147025000Y-69939728D01*
X146900518Y-69951988D01*
X146780820Y-69988298D01*
X146670506Y-70047263D01*
X146573815Y-70126615D01*
X146494463Y-70223306D01*
X146435498Y-70333620D01*
X146399188Y-70453318D01*
X146386928Y-70577800D01*
X144473072Y-70577800D01*
X144460812Y-70453318D01*
X144424502Y-70333620D01*
X144365537Y-70223306D01*
X144286185Y-70126615D01*
X144189494Y-70047263D01*
X144079180Y-69988298D01*
X143959482Y-69951988D01*
X143835000Y-69939728D01*
X143485750Y-69942800D01*
X143327000Y-70101550D01*
X143073000Y-70101550D01*
X142914250Y-69942800D01*
X142565000Y-69939728D01*
X142440518Y-69951988D01*
X142320820Y-69988298D01*
X142210506Y-70047263D01*
X142127000Y-70115794D01*
X142127000Y-69400000D01*
X148473000Y-69400000D01*
X148473000Y-69968223D01*
G37*
X148473000Y-69968223D02*
X148419482Y-69951988D01*
X148295000Y-69939728D01*
X147945750Y-69942800D01*
X147787000Y-70101550D01*
X147787000Y-72550800D01*
X147807000Y-72550800D01*
X147807000Y-72804800D01*
X147787000Y-72804800D01*
X147787000Y-72824800D01*
X147533000Y-72824800D01*
X147533000Y-72804800D01*
X146548750Y-72804800D01*
X146390000Y-72963550D01*
X146387161Y-74640000D01*
X146352058Y-74640000D01*
X146300000Y-74634873D01*
X146247942Y-74640000D01*
X146247934Y-74640000D01*
X146110319Y-74653554D01*
X146092203Y-74655338D01*
X145892393Y-74715950D01*
X145708247Y-74814378D01*
X145546841Y-74946841D01*
X145513651Y-74987284D01*
X145027935Y-75473000D01*
X142127000Y-75473000D01*
X142127000Y-75239806D01*
X142210506Y-75308337D01*
X142320820Y-75367302D01*
X142440518Y-75403612D01*
X142565000Y-75415872D01*
X142914250Y-75412800D01*
X143073000Y-75254050D01*
X143073000Y-72804800D01*
X143327000Y-72804800D01*
X143327000Y-75254050D01*
X143485750Y-75412800D01*
X143835000Y-75415872D01*
X143959482Y-75403612D01*
X144079180Y-75367302D01*
X144189494Y-75308337D01*
X144286185Y-75228985D01*
X144365537Y-75132294D01*
X144424502Y-75021980D01*
X144460812Y-74902282D01*
X144473072Y-74777800D01*
X144470000Y-72963550D01*
X144311250Y-72804800D01*
X143327000Y-72804800D01*
X143073000Y-72804800D01*
X143053000Y-72804800D01*
X143053000Y-72550800D01*
X143073000Y-72550800D01*
X143073000Y-70101550D01*
X143327000Y-70101550D01*
X143327000Y-72550800D01*
X144311250Y-72550800D01*
X144470000Y-72392050D01*
X144473072Y-70577800D01*
X146386928Y-70577800D01*
X146390000Y-72392050D01*
X146548750Y-72550800D01*
X147533000Y-72550800D01*
X147533000Y-70101550D01*
X147374250Y-69942800D01*
X147025000Y-69939728D01*
X146900518Y-69951988D01*
X146780820Y-69988298D01*
X146670506Y-70047263D01*
X146573815Y-70126615D01*
X146494463Y-70223306D01*
X146435498Y-70333620D01*
X146399188Y-70453318D01*
X146386928Y-70577800D01*
X144473072Y-70577800D01*
X144460812Y-70453318D01*
X144424502Y-70333620D01*
X144365537Y-70223306D01*
X144286185Y-70126615D01*
X144189494Y-70047263D01*
X144079180Y-69988298D01*
X143959482Y-69951988D01*
X143835000Y-69939728D01*
X143485750Y-69942800D01*
X143327000Y-70101550D01*
X143073000Y-70101550D01*
X142914250Y-69942800D01*
X142565000Y-69939728D01*
X142440518Y-69951988D01*
X142320820Y-69988298D01*
X142210506Y-70047263D01*
X142127000Y-70115794D01*
X142127000Y-69400000D01*
X148473000Y-69400000D01*
X148473000Y-69968223D01*
%TO.N,Net-(D3-Pad1)*%
G36*
X149935498Y-76395820D02*
G01*
X149899188Y-76515518D01*
X149886928Y-76640000D01*
X149890000Y-78454250D01*
X150048750Y-78613000D01*
X150773000Y-78613000D01*
X150773000Y-78867000D01*
X150048750Y-78867000D01*
X149890000Y-79025750D01*
X149886928Y-80840000D01*
X149899188Y-80964482D01*
X149901772Y-80973000D01*
X147958228Y-80973000D01*
X147960812Y-80964482D01*
X147973072Y-80840000D01*
X147970000Y-79025750D01*
X147811250Y-78867000D01*
X146827000Y-78867000D01*
X146827000Y-78887000D01*
X146573000Y-78887000D01*
X146573000Y-78867000D01*
X146553000Y-78867000D01*
X146553000Y-78613000D01*
X146573000Y-78613000D01*
X146573000Y-78593000D01*
X146827000Y-78593000D01*
X146827000Y-78613000D01*
X147811250Y-78613000D01*
X147970000Y-78454250D01*
X147972869Y-76760000D01*
X148547944Y-76760000D01*
X148600000Y-76765127D01*
X148652056Y-76760000D01*
X148652066Y-76760000D01*
X148807796Y-76744662D01*
X149007607Y-76684050D01*
X149191753Y-76585622D01*
X149353159Y-76453159D01*
X149386353Y-76412712D01*
X149472065Y-76327000D01*
X149972284Y-76327000D01*
X149935498Y-76395820D01*
G37*
X149935498Y-76395820D02*
X149899188Y-76515518D01*
X149886928Y-76640000D01*
X149890000Y-78454250D01*
X150048750Y-78613000D01*
X150773000Y-78613000D01*
X150773000Y-78867000D01*
X150048750Y-78867000D01*
X149890000Y-79025750D01*
X149886928Y-80840000D01*
X149899188Y-80964482D01*
X149901772Y-80973000D01*
X147958228Y-80973000D01*
X147960812Y-80964482D01*
X147973072Y-80840000D01*
X147970000Y-79025750D01*
X147811250Y-78867000D01*
X146827000Y-78867000D01*
X146827000Y-78887000D01*
X146573000Y-78887000D01*
X146573000Y-78867000D01*
X146553000Y-78867000D01*
X146553000Y-78613000D01*
X146573000Y-78613000D01*
X146573000Y-78593000D01*
X146827000Y-78593000D01*
X146827000Y-78613000D01*
X147811250Y-78613000D01*
X147970000Y-78454250D01*
X147972869Y-76760000D01*
X148547944Y-76760000D01*
X148600000Y-76765127D01*
X148652056Y-76760000D01*
X148652066Y-76760000D01*
X148807796Y-76744662D01*
X149007607Y-76684050D01*
X149191753Y-76585622D01*
X149353159Y-76453159D01*
X149386353Y-76412712D01*
X149472065Y-76327000D01*
X149972284Y-76327000D01*
X149935498Y-76395820D01*
%TO.N,GND*%
G36*
X151202994Y-70058342D02*
G01*
X151189494Y-70047263D01*
X151079180Y-69988298D01*
X150959482Y-69951988D01*
X150835000Y-69939728D01*
X150485750Y-69942800D01*
X150327000Y-70101550D01*
X150327000Y-72550800D01*
X151311250Y-72550800D01*
X151470000Y-72392050D01*
X151473072Y-70577800D01*
X151466941Y-70515553D01*
X154328875Y-75473000D01*
X149327000Y-75473000D01*
X149327000Y-75369177D01*
X149440518Y-75403612D01*
X149565000Y-75415872D01*
X149914250Y-75412800D01*
X150073000Y-75254050D01*
X150073000Y-72804800D01*
X150327000Y-72804800D01*
X150327000Y-75254050D01*
X150485750Y-75412800D01*
X150835000Y-75415872D01*
X150959482Y-75403612D01*
X151079180Y-75367302D01*
X151189494Y-75308337D01*
X151286185Y-75228985D01*
X151365537Y-75132294D01*
X151424502Y-75021980D01*
X151460812Y-74902282D01*
X151473072Y-74777800D01*
X151470000Y-72963550D01*
X151311250Y-72804800D01*
X150327000Y-72804800D01*
X150073000Y-72804800D01*
X150053000Y-72804800D01*
X150053000Y-72550800D01*
X150073000Y-72550800D01*
X150073000Y-70101550D01*
X149914250Y-69942800D01*
X149565000Y-69939728D01*
X149440518Y-69951988D01*
X149327000Y-69986423D01*
X149327000Y-69400000D01*
X150822933Y-69400000D01*
X151202994Y-70058342D01*
G37*
X151202994Y-70058342D02*
X151189494Y-70047263D01*
X151079180Y-69988298D01*
X150959482Y-69951988D01*
X150835000Y-69939728D01*
X150485750Y-69942800D01*
X150327000Y-70101550D01*
X150327000Y-72550800D01*
X151311250Y-72550800D01*
X151470000Y-72392050D01*
X151473072Y-70577800D01*
X151466941Y-70515553D01*
X154328875Y-75473000D01*
X149327000Y-75473000D01*
X149327000Y-75369177D01*
X149440518Y-75403612D01*
X149565000Y-75415872D01*
X149914250Y-75412800D01*
X150073000Y-75254050D01*
X150073000Y-72804800D01*
X150327000Y-72804800D01*
X150327000Y-75254050D01*
X150485750Y-75412800D01*
X150835000Y-75415872D01*
X150959482Y-75403612D01*
X151079180Y-75367302D01*
X151189494Y-75308337D01*
X151286185Y-75228985D01*
X151365537Y-75132294D01*
X151424502Y-75021980D01*
X151460812Y-74902282D01*
X151473072Y-74777800D01*
X151470000Y-72963550D01*
X151311250Y-72804800D01*
X150327000Y-72804800D01*
X150073000Y-72804800D01*
X150053000Y-72804800D01*
X150053000Y-72550800D01*
X150073000Y-72550800D01*
X150073000Y-70101550D01*
X149914250Y-69942800D01*
X149565000Y-69939728D01*
X149440518Y-69951988D01*
X149327000Y-69986423D01*
X149327000Y-69400000D01*
X150822933Y-69400000D01*
X151202994Y-70058342D01*
%TO.N,Net-(D5-Pad1)*%
G36*
X141273000Y-69939922D02*
G01*
X140945750Y-69942800D01*
X140787000Y-70101550D01*
X140787000Y-72550800D01*
X140807000Y-72550800D01*
X140807000Y-72804800D01*
X140787000Y-72804800D01*
X140787000Y-75254050D01*
X140945750Y-75412800D01*
X141273000Y-75415678D01*
X141273000Y-75473000D01*
X140300000Y-75473000D01*
X140275224Y-75475440D01*
X140251399Y-75482667D01*
X140229443Y-75494403D01*
X140210197Y-75510197D01*
X139910197Y-75810197D01*
X139894403Y-75829443D01*
X139882667Y-75851399D01*
X139875440Y-75875224D01*
X139873000Y-75900000D01*
X139873000Y-76001928D01*
X139382500Y-76001928D01*
X139196077Y-76020289D01*
X139016818Y-76074667D01*
X138851613Y-76162971D01*
X138706809Y-76281809D01*
X138587971Y-76426613D01*
X138499667Y-76591818D01*
X138445289Y-76771077D01*
X138432632Y-76899581D01*
X138433072Y-76640000D01*
X138420812Y-76515518D01*
X138384502Y-76395820D01*
X138325537Y-76285506D01*
X138246185Y-76188815D01*
X138149494Y-76109463D01*
X138039180Y-76050498D01*
X137919482Y-76014188D01*
X137795000Y-76001928D01*
X137445750Y-76005000D01*
X137287000Y-76163750D01*
X137287000Y-78613000D01*
X137307000Y-78613000D01*
X137307000Y-78867000D01*
X137287000Y-78867000D01*
X137287000Y-78887000D01*
X137033000Y-78887000D01*
X137033000Y-78867000D01*
X136048750Y-78867000D01*
X135890000Y-79025750D01*
X135886928Y-80840000D01*
X135892999Y-80901638D01*
X134645085Y-78740000D01*
X135892999Y-76578362D01*
X135886928Y-76640000D01*
X135890000Y-78454250D01*
X136048750Y-78613000D01*
X137033000Y-78613000D01*
X137033000Y-76163750D01*
X136874250Y-76005000D01*
X136525000Y-76001928D01*
X136400518Y-76014188D01*
X136280820Y-76050498D01*
X136170506Y-76109463D01*
X136157561Y-76120087D01*
X136932463Y-74777800D01*
X139386928Y-74777800D01*
X139399188Y-74902282D01*
X139435498Y-75021980D01*
X139494463Y-75132294D01*
X139573815Y-75228985D01*
X139670506Y-75308337D01*
X139780820Y-75367302D01*
X139900518Y-75403612D01*
X140025000Y-75415872D01*
X140374250Y-75412800D01*
X140533000Y-75254050D01*
X140533000Y-72804800D01*
X139548750Y-72804800D01*
X139390000Y-72963550D01*
X139386928Y-74777800D01*
X136932463Y-74777800D01*
X139393059Y-70515553D01*
X139386928Y-70577800D01*
X139390000Y-72392050D01*
X139548750Y-72550800D01*
X140533000Y-72550800D01*
X140533000Y-70101550D01*
X140374250Y-69942800D01*
X140025000Y-69939728D01*
X139900518Y-69951988D01*
X139780820Y-69988298D01*
X139670506Y-70047263D01*
X139657007Y-70058341D01*
X140037068Y-69400000D01*
X141273000Y-69400000D01*
X141273000Y-69939922D01*
G37*
X141273000Y-69939922D02*
X140945750Y-69942800D01*
X140787000Y-70101550D01*
X140787000Y-72550800D01*
X140807000Y-72550800D01*
X140807000Y-72804800D01*
X140787000Y-72804800D01*
X140787000Y-75254050D01*
X140945750Y-75412800D01*
X141273000Y-75415678D01*
X141273000Y-75473000D01*
X140300000Y-75473000D01*
X140275224Y-75475440D01*
X140251399Y-75482667D01*
X140229443Y-75494403D01*
X140210197Y-75510197D01*
X139910197Y-75810197D01*
X139894403Y-75829443D01*
X139882667Y-75851399D01*
X139875440Y-75875224D01*
X139873000Y-75900000D01*
X139873000Y-76001928D01*
X139382500Y-76001928D01*
X139196077Y-76020289D01*
X139016818Y-76074667D01*
X138851613Y-76162971D01*
X138706809Y-76281809D01*
X138587971Y-76426613D01*
X138499667Y-76591818D01*
X138445289Y-76771077D01*
X138432632Y-76899581D01*
X138433072Y-76640000D01*
X138420812Y-76515518D01*
X138384502Y-76395820D01*
X138325537Y-76285506D01*
X138246185Y-76188815D01*
X138149494Y-76109463D01*
X138039180Y-76050498D01*
X137919482Y-76014188D01*
X137795000Y-76001928D01*
X137445750Y-76005000D01*
X137287000Y-76163750D01*
X137287000Y-78613000D01*
X137307000Y-78613000D01*
X137307000Y-78867000D01*
X137287000Y-78867000D01*
X137287000Y-78887000D01*
X137033000Y-78887000D01*
X137033000Y-78867000D01*
X136048750Y-78867000D01*
X135890000Y-79025750D01*
X135886928Y-80840000D01*
X135892999Y-80901638D01*
X134645085Y-78740000D01*
X135892999Y-76578362D01*
X135886928Y-76640000D01*
X135890000Y-78454250D01*
X136048750Y-78613000D01*
X137033000Y-78613000D01*
X137033000Y-76163750D01*
X136874250Y-76005000D01*
X136525000Y-76001928D01*
X136400518Y-76014188D01*
X136280820Y-76050498D01*
X136170506Y-76109463D01*
X136157561Y-76120087D01*
X136932463Y-74777800D01*
X139386928Y-74777800D01*
X139399188Y-74902282D01*
X139435498Y-75021980D01*
X139494463Y-75132294D01*
X139573815Y-75228985D01*
X139670506Y-75308337D01*
X139780820Y-75367302D01*
X139900518Y-75403612D01*
X140025000Y-75415872D01*
X140374250Y-75412800D01*
X140533000Y-75254050D01*
X140533000Y-72804800D01*
X139548750Y-72804800D01*
X139390000Y-72963550D01*
X139386928Y-74777800D01*
X136932463Y-74777800D01*
X139393059Y-70515553D01*
X139386928Y-70577800D01*
X139390000Y-72392050D01*
X139548750Y-72550800D01*
X140533000Y-72550800D01*
X140533000Y-70101550D01*
X140374250Y-69942800D01*
X140025000Y-69939728D01*
X139900518Y-69951988D01*
X139780820Y-69988298D01*
X139670506Y-70047263D01*
X139657007Y-70058341D01*
X140037068Y-69400000D01*
X141273000Y-69400000D01*
X141273000Y-69939922D01*
%TO.N,Net-(D2-Pad1)*%
G36*
X156214914Y-78740000D02*
G01*
X154967001Y-80901637D01*
X154973072Y-80840000D01*
X154970000Y-79025750D01*
X154811250Y-78867000D01*
X153827000Y-78867000D01*
X153827000Y-81316250D01*
X153985750Y-81475000D01*
X154335000Y-81478072D01*
X154459482Y-81465812D01*
X154579180Y-81429502D01*
X154689494Y-81370537D01*
X154702438Y-81359914D01*
X151466941Y-86964447D01*
X151473072Y-86902200D01*
X151470000Y-85087950D01*
X151311250Y-84929200D01*
X150327000Y-84929200D01*
X150327000Y-87378450D01*
X150485750Y-87537200D01*
X150835000Y-87540272D01*
X150959482Y-87528012D01*
X151079180Y-87491702D01*
X151189494Y-87432737D01*
X151202994Y-87421658D01*
X150822933Y-88080000D01*
X149427000Y-88080000D01*
X149427000Y-87523911D01*
X149440518Y-87528012D01*
X149565000Y-87540272D01*
X149914250Y-87537200D01*
X150073000Y-87378450D01*
X150073000Y-84929200D01*
X150053000Y-84929200D01*
X150053000Y-84675200D01*
X150073000Y-84675200D01*
X150073000Y-82225950D01*
X150327000Y-82225950D01*
X150327000Y-84675200D01*
X151311250Y-84675200D01*
X151470000Y-84516450D01*
X151473072Y-82702200D01*
X151460812Y-82577718D01*
X151424502Y-82458020D01*
X151365537Y-82347706D01*
X151286185Y-82251015D01*
X151189494Y-82171663D01*
X151079180Y-82112698D01*
X150959482Y-82076388D01*
X150835000Y-82064128D01*
X150485750Y-82067200D01*
X150327000Y-82225950D01*
X150073000Y-82225950D01*
X149914250Y-82067200D01*
X149565000Y-82064128D01*
X149440518Y-82076388D01*
X149427000Y-82080489D01*
X149427000Y-81827000D01*
X150400000Y-81827000D01*
X150424776Y-81824560D01*
X150453706Y-81815085D01*
X151175877Y-81478072D01*
X151477500Y-81478072D01*
X151663923Y-81459711D01*
X151843182Y-81405333D01*
X152008387Y-81317029D01*
X152153191Y-81198191D01*
X152272029Y-81053387D01*
X152360333Y-80888182D01*
X152414711Y-80708923D01*
X152427368Y-80580419D01*
X152426928Y-80840000D01*
X152439188Y-80964482D01*
X152475498Y-81084180D01*
X152534463Y-81194494D01*
X152613815Y-81291185D01*
X152710506Y-81370537D01*
X152820820Y-81429502D01*
X152940518Y-81465812D01*
X153065000Y-81478072D01*
X153414250Y-81475000D01*
X153573000Y-81316250D01*
X153573000Y-78867000D01*
X153553000Y-78867000D01*
X153553000Y-78613000D01*
X153573000Y-78613000D01*
X153573000Y-78593000D01*
X153827000Y-78593000D01*
X153827000Y-78613000D01*
X154811250Y-78613000D01*
X154970000Y-78454250D01*
X154973072Y-76640000D01*
X154967001Y-76578363D01*
X156214914Y-78740000D01*
G37*
X156214914Y-78740000D02*
X154967001Y-80901637D01*
X154973072Y-80840000D01*
X154970000Y-79025750D01*
X154811250Y-78867000D01*
X153827000Y-78867000D01*
X153827000Y-81316250D01*
X153985750Y-81475000D01*
X154335000Y-81478072D01*
X154459482Y-81465812D01*
X154579180Y-81429502D01*
X154689494Y-81370537D01*
X154702438Y-81359914D01*
X151466941Y-86964447D01*
X151473072Y-86902200D01*
X151470000Y-85087950D01*
X151311250Y-84929200D01*
X150327000Y-84929200D01*
X150327000Y-87378450D01*
X150485750Y-87537200D01*
X150835000Y-87540272D01*
X150959482Y-87528012D01*
X151079180Y-87491702D01*
X151189494Y-87432737D01*
X151202994Y-87421658D01*
X150822933Y-88080000D01*
X149427000Y-88080000D01*
X149427000Y-87523911D01*
X149440518Y-87528012D01*
X149565000Y-87540272D01*
X149914250Y-87537200D01*
X150073000Y-87378450D01*
X150073000Y-84929200D01*
X150053000Y-84929200D01*
X150053000Y-84675200D01*
X150073000Y-84675200D01*
X150073000Y-82225950D01*
X150327000Y-82225950D01*
X150327000Y-84675200D01*
X151311250Y-84675200D01*
X151470000Y-84516450D01*
X151473072Y-82702200D01*
X151460812Y-82577718D01*
X151424502Y-82458020D01*
X151365537Y-82347706D01*
X151286185Y-82251015D01*
X151189494Y-82171663D01*
X151079180Y-82112698D01*
X150959482Y-82076388D01*
X150835000Y-82064128D01*
X150485750Y-82067200D01*
X150327000Y-82225950D01*
X150073000Y-82225950D01*
X149914250Y-82067200D01*
X149565000Y-82064128D01*
X149440518Y-82076388D01*
X149427000Y-82080489D01*
X149427000Y-81827000D01*
X150400000Y-81827000D01*
X150424776Y-81824560D01*
X150453706Y-81815085D01*
X151175877Y-81478072D01*
X151477500Y-81478072D01*
X151663923Y-81459711D01*
X151843182Y-81405333D01*
X152008387Y-81317029D01*
X152153191Y-81198191D01*
X152272029Y-81053387D01*
X152360333Y-80888182D01*
X152414711Y-80708923D01*
X152427368Y-80580419D01*
X152426928Y-80840000D01*
X152439188Y-80964482D01*
X152475498Y-81084180D01*
X152534463Y-81194494D01*
X152613815Y-81291185D01*
X152710506Y-81370537D01*
X152820820Y-81429502D01*
X152940518Y-81465812D01*
X153065000Y-81478072D01*
X153414250Y-81475000D01*
X153573000Y-81316250D01*
X153573000Y-78867000D01*
X153553000Y-78867000D01*
X153553000Y-78613000D01*
X153573000Y-78613000D01*
X153573000Y-78593000D01*
X153827000Y-78593000D01*
X153827000Y-78613000D01*
X154811250Y-78613000D01*
X154970000Y-78454250D01*
X154973072Y-76640000D01*
X154967001Y-76578363D01*
X156214914Y-78740000D01*
%TO.N,Net-(D1-Pad2)*%
G36*
X141473000Y-82092623D02*
G01*
X141419482Y-82076388D01*
X141295000Y-82064128D01*
X140945750Y-82067200D01*
X140787000Y-82225950D01*
X140787000Y-84675200D01*
X140807000Y-84675200D01*
X140807000Y-84929200D01*
X140787000Y-84929200D01*
X140787000Y-87378450D01*
X140945750Y-87537200D01*
X141295000Y-87540272D01*
X141419482Y-87528012D01*
X141473000Y-87511777D01*
X141473000Y-88080000D01*
X140037068Y-88080000D01*
X139657007Y-87421659D01*
X139670506Y-87432737D01*
X139780820Y-87491702D01*
X139900518Y-87528012D01*
X140025000Y-87540272D01*
X140374250Y-87537200D01*
X140533000Y-87378450D01*
X140533000Y-84929200D01*
X139548750Y-84929200D01*
X139390000Y-85087950D01*
X139386928Y-86902200D01*
X139393059Y-86964447D01*
X136932464Y-82702200D01*
X139386928Y-82702200D01*
X139390000Y-84516450D01*
X139548750Y-84675200D01*
X140533000Y-84675200D01*
X140533000Y-82225950D01*
X140374250Y-82067200D01*
X140025000Y-82064128D01*
X139900518Y-82076388D01*
X139780820Y-82112698D01*
X139670506Y-82171663D01*
X139573815Y-82251015D01*
X139494463Y-82347706D01*
X139435498Y-82458020D01*
X139399188Y-82577718D01*
X139386928Y-82702200D01*
X136932464Y-82702200D01*
X136427210Y-81827000D01*
X141473000Y-81827000D01*
X141473000Y-82092623D01*
G37*
X141473000Y-82092623D02*
X141419482Y-82076388D01*
X141295000Y-82064128D01*
X140945750Y-82067200D01*
X140787000Y-82225950D01*
X140787000Y-84675200D01*
X140807000Y-84675200D01*
X140807000Y-84929200D01*
X140787000Y-84929200D01*
X140787000Y-87378450D01*
X140945750Y-87537200D01*
X141295000Y-87540272D01*
X141419482Y-87528012D01*
X141473000Y-87511777D01*
X141473000Y-88080000D01*
X140037068Y-88080000D01*
X139657007Y-87421659D01*
X139670506Y-87432737D01*
X139780820Y-87491702D01*
X139900518Y-87528012D01*
X140025000Y-87540272D01*
X140374250Y-87537200D01*
X140533000Y-87378450D01*
X140533000Y-84929200D01*
X139548750Y-84929200D01*
X139390000Y-85087950D01*
X139386928Y-86902200D01*
X139393059Y-86964447D01*
X136932464Y-82702200D01*
X139386928Y-82702200D01*
X139390000Y-84516450D01*
X139548750Y-84675200D01*
X140533000Y-84675200D01*
X140533000Y-82225950D01*
X140374250Y-82067200D01*
X140025000Y-82064128D01*
X139900518Y-82076388D01*
X139780820Y-82112698D01*
X139670506Y-82171663D01*
X139573815Y-82251015D01*
X139494463Y-82347706D01*
X139435498Y-82458020D01*
X139399188Y-82577718D01*
X139386928Y-82702200D01*
X136932464Y-82702200D01*
X136427210Y-81827000D01*
X141473000Y-81827000D01*
X141473000Y-82092623D01*
%TO.N,Net-(D1-Pad1)*%
G36*
X144295000Y-82261756D02*
G01*
X144286185Y-82251015D01*
X144189494Y-82171663D01*
X144079180Y-82112698D01*
X143959482Y-82076388D01*
X143835000Y-82064128D01*
X143485750Y-82067200D01*
X143327000Y-82225950D01*
X143327000Y-84675200D01*
X144311250Y-84675200D01*
X144470000Y-84516450D01*
X144471669Y-83530824D01*
X144481717Y-83549623D01*
X144517254Y-83592925D01*
X144548388Y-83639520D01*
X144588014Y-83679146D01*
X144623552Y-83722449D01*
X144666855Y-83757987D01*
X144706480Y-83797612D01*
X144753074Y-83828745D01*
X144796378Y-83864284D01*
X144845782Y-83890691D01*
X144892376Y-83921824D01*
X144944153Y-83943271D01*
X144993554Y-83969676D01*
X145047155Y-83985936D01*
X145098933Y-84007383D01*
X145153897Y-84018316D01*
X145207502Y-84034577D01*
X145263252Y-84040068D01*
X145318212Y-84051000D01*
X145374249Y-84051000D01*
X145430000Y-84056491D01*
X145485752Y-84051000D01*
X145541788Y-84051000D01*
X145596747Y-84040068D01*
X145652499Y-84034577D01*
X145706106Y-84018315D01*
X145761067Y-84007383D01*
X145812842Y-83985937D01*
X145866447Y-83969676D01*
X145915851Y-83943269D01*
X145967624Y-83921824D01*
X146014214Y-83890693D01*
X146063623Y-83864284D01*
X146106932Y-83828741D01*
X146153520Y-83797612D01*
X146193141Y-83757991D01*
X146236449Y-83722449D01*
X146271991Y-83679141D01*
X146311612Y-83639520D01*
X146342741Y-83592932D01*
X146378284Y-83549623D01*
X146388331Y-83530826D01*
X146390000Y-84516450D01*
X146548750Y-84675200D01*
X147533000Y-84675200D01*
X147533000Y-82225950D01*
X147374250Y-82067200D01*
X147025000Y-82064128D01*
X146900518Y-82076388D01*
X146780820Y-82112698D01*
X146670506Y-82171663D01*
X146573815Y-82251015D01*
X146565000Y-82261756D01*
X146565000Y-81827000D01*
X148473000Y-81827000D01*
X148473000Y-82092623D01*
X148419482Y-82076388D01*
X148295000Y-82064128D01*
X147945750Y-82067200D01*
X147787000Y-82225950D01*
X147787000Y-84675200D01*
X147807000Y-84675200D01*
X147807000Y-84929200D01*
X147787000Y-84929200D01*
X147787000Y-87378450D01*
X147945750Y-87537200D01*
X148295000Y-87540272D01*
X148419482Y-87528012D01*
X148473000Y-87511777D01*
X148473000Y-88080000D01*
X142427000Y-88080000D01*
X142427000Y-87523911D01*
X142440518Y-87528012D01*
X142565000Y-87540272D01*
X142914250Y-87537200D01*
X143073000Y-87378450D01*
X143073000Y-84929200D01*
X143327000Y-84929200D01*
X143327000Y-87378450D01*
X143485750Y-87537200D01*
X143835000Y-87540272D01*
X143959482Y-87528012D01*
X144079180Y-87491702D01*
X144189494Y-87432737D01*
X144286185Y-87353385D01*
X144365537Y-87256694D01*
X144424502Y-87146380D01*
X144460812Y-87026682D01*
X144473072Y-86902200D01*
X146386928Y-86902200D01*
X146399188Y-87026682D01*
X146435498Y-87146380D01*
X146494463Y-87256694D01*
X146573815Y-87353385D01*
X146670506Y-87432737D01*
X146780820Y-87491702D01*
X146900518Y-87528012D01*
X147025000Y-87540272D01*
X147374250Y-87537200D01*
X147533000Y-87378450D01*
X147533000Y-84929200D01*
X146548750Y-84929200D01*
X146390000Y-85087950D01*
X146386928Y-86902200D01*
X144473072Y-86902200D01*
X144470000Y-85087950D01*
X144311250Y-84929200D01*
X143327000Y-84929200D01*
X143073000Y-84929200D01*
X143053000Y-84929200D01*
X143053000Y-84675200D01*
X143073000Y-84675200D01*
X143073000Y-82225950D01*
X142914250Y-82067200D01*
X142565000Y-82064128D01*
X142440518Y-82076388D01*
X142427000Y-82080489D01*
X142427000Y-81827000D01*
X144295000Y-81827000D01*
X144295000Y-82261756D01*
G37*
X144295000Y-82261756D02*
X144286185Y-82251015D01*
X144189494Y-82171663D01*
X144079180Y-82112698D01*
X143959482Y-82076388D01*
X143835000Y-82064128D01*
X143485750Y-82067200D01*
X143327000Y-82225950D01*
X143327000Y-84675200D01*
X144311250Y-84675200D01*
X144470000Y-84516450D01*
X144471669Y-83530824D01*
X144481717Y-83549623D01*
X144517254Y-83592925D01*
X144548388Y-83639520D01*
X144588014Y-83679146D01*
X144623552Y-83722449D01*
X144666855Y-83757987D01*
X144706480Y-83797612D01*
X144753074Y-83828745D01*
X144796378Y-83864284D01*
X144845782Y-83890691D01*
X144892376Y-83921824D01*
X144944153Y-83943271D01*
X144993554Y-83969676D01*
X145047155Y-83985936D01*
X145098933Y-84007383D01*
X145153897Y-84018316D01*
X145207502Y-84034577D01*
X145263252Y-84040068D01*
X145318212Y-84051000D01*
X145374249Y-84051000D01*
X145430000Y-84056491D01*
X145485752Y-84051000D01*
X145541788Y-84051000D01*
X145596747Y-84040068D01*
X145652499Y-84034577D01*
X145706106Y-84018315D01*
X145761067Y-84007383D01*
X145812842Y-83985937D01*
X145866447Y-83969676D01*
X145915851Y-83943269D01*
X145967624Y-83921824D01*
X146014214Y-83890693D01*
X146063623Y-83864284D01*
X146106932Y-83828741D01*
X146153520Y-83797612D01*
X146193141Y-83757991D01*
X146236449Y-83722449D01*
X146271991Y-83679141D01*
X146311612Y-83639520D01*
X146342741Y-83592932D01*
X146378284Y-83549623D01*
X146388331Y-83530826D01*
X146390000Y-84516450D01*
X146548750Y-84675200D01*
X147533000Y-84675200D01*
X147533000Y-82225950D01*
X147374250Y-82067200D01*
X147025000Y-82064128D01*
X146900518Y-82076388D01*
X146780820Y-82112698D01*
X146670506Y-82171663D01*
X146573815Y-82251015D01*
X146565000Y-82261756D01*
X146565000Y-81827000D01*
X148473000Y-81827000D01*
X148473000Y-82092623D01*
X148419482Y-82076388D01*
X148295000Y-82064128D01*
X147945750Y-82067200D01*
X147787000Y-82225950D01*
X147787000Y-84675200D01*
X147807000Y-84675200D01*
X147807000Y-84929200D01*
X147787000Y-84929200D01*
X147787000Y-87378450D01*
X147945750Y-87537200D01*
X148295000Y-87540272D01*
X148419482Y-87528012D01*
X148473000Y-87511777D01*
X148473000Y-88080000D01*
X142427000Y-88080000D01*
X142427000Y-87523911D01*
X142440518Y-87528012D01*
X142565000Y-87540272D01*
X142914250Y-87537200D01*
X143073000Y-87378450D01*
X143073000Y-84929200D01*
X143327000Y-84929200D01*
X143327000Y-87378450D01*
X143485750Y-87537200D01*
X143835000Y-87540272D01*
X143959482Y-87528012D01*
X144079180Y-87491702D01*
X144189494Y-87432737D01*
X144286185Y-87353385D01*
X144365537Y-87256694D01*
X144424502Y-87146380D01*
X144460812Y-87026682D01*
X144473072Y-86902200D01*
X146386928Y-86902200D01*
X146399188Y-87026682D01*
X146435498Y-87146380D01*
X146494463Y-87256694D01*
X146573815Y-87353385D01*
X146670506Y-87432737D01*
X146780820Y-87491702D01*
X146900518Y-87528012D01*
X147025000Y-87540272D01*
X147374250Y-87537200D01*
X147533000Y-87378450D01*
X147533000Y-84929200D01*
X146548750Y-84929200D01*
X146390000Y-85087950D01*
X146386928Y-86902200D01*
X144473072Y-86902200D01*
X144470000Y-85087950D01*
X144311250Y-84929200D01*
X143327000Y-84929200D01*
X143073000Y-84929200D01*
X143053000Y-84929200D01*
X143053000Y-84675200D01*
X143073000Y-84675200D01*
X143073000Y-82225950D01*
X142914250Y-82067200D01*
X142565000Y-82064128D01*
X142440518Y-82076388D01*
X142427000Y-82080489D01*
X142427000Y-81827000D01*
X144295000Y-81827000D01*
X144295000Y-82261756D01*
%TO.N,Net-(D4-Pad1)*%
G36*
X142935498Y-76395820D02*
G01*
X142899188Y-76515518D01*
X142886928Y-76640000D01*
X142890000Y-78454250D01*
X143048750Y-78613000D01*
X144033000Y-78613000D01*
X144033000Y-78593000D01*
X144287000Y-78593000D01*
X144287000Y-78613000D01*
X144307000Y-78613000D01*
X144307000Y-78867000D01*
X144287000Y-78867000D01*
X144287000Y-78887000D01*
X144033000Y-78887000D01*
X144033000Y-78867000D01*
X143048750Y-78867000D01*
X142890000Y-79025750D01*
X142886928Y-80840000D01*
X142899188Y-80964482D01*
X142901772Y-80973000D01*
X140958228Y-80973000D01*
X140960812Y-80964482D01*
X140973072Y-80840000D01*
X140970000Y-79025750D01*
X140811250Y-78867000D01*
X140727000Y-78867000D01*
X140727000Y-78613000D01*
X140811250Y-78613000D01*
X140970000Y-78454250D01*
X140973072Y-76640000D01*
X140960812Y-76515518D01*
X140924502Y-76395820D01*
X140887716Y-76327000D01*
X142972284Y-76327000D01*
X142935498Y-76395820D01*
G37*
X142935498Y-76395820D02*
X142899188Y-76515518D01*
X142886928Y-76640000D01*
X142890000Y-78454250D01*
X143048750Y-78613000D01*
X144033000Y-78613000D01*
X144033000Y-78593000D01*
X144287000Y-78593000D01*
X144287000Y-78613000D01*
X144307000Y-78613000D01*
X144307000Y-78867000D01*
X144287000Y-78867000D01*
X144287000Y-78887000D01*
X144033000Y-78887000D01*
X144033000Y-78867000D01*
X143048750Y-78867000D01*
X142890000Y-79025750D01*
X142886928Y-80840000D01*
X142899188Y-80964482D01*
X142901772Y-80973000D01*
X140958228Y-80973000D01*
X140960812Y-80964482D01*
X140973072Y-80840000D01*
X140970000Y-79025750D01*
X140811250Y-78867000D01*
X140727000Y-78867000D01*
X140727000Y-78613000D01*
X140811250Y-78613000D01*
X140970000Y-78454250D01*
X140973072Y-76640000D01*
X140960812Y-76515518D01*
X140924502Y-76395820D01*
X140887716Y-76327000D01*
X142972284Y-76327000D01*
X142935498Y-76395820D01*
%TD*%
M02*
