%TF.GenerationSoftware,KiCad,Pcbnew,(5.1.6)-1*%
%TF.CreationDate,2021-11-11T19:19:45-05:00*%
%TF.ProjectId,sevenLEDboard,73657665-6e4c-4454-9462-6f6172642e6b,rev?*%
%TF.SameCoordinates,Original*%
%TF.FileFunction,Soldermask,Bot*%
%TF.FilePolarity,Negative*%
%FSLAX46Y46*%
G04 Gerber Fmt 4.6, Leading zero omitted, Abs format (unit mm)*
G04 Created by KiCad (PCBNEW (5.1.6)-1) date 2021-11-11 19:19:45*
%MOMM*%
%LPD*%
G01*
G04 APERTURE LIST*
G04 APERTURE END LIST*
%TO.C,D7*%
G36*
G01*
X148345000Y-70870300D02*
X148345000Y-74485300D01*
G75*
G02*
X148002500Y-74827800I-342500J0D01*
G01*
X147317500Y-74827800D01*
G75*
G02*
X146975000Y-74485300I0J342500D01*
G01*
X146975000Y-70870300D01*
G75*
G02*
X147317500Y-70527800I342500J0D01*
G01*
X148002500Y-70527800D01*
G75*
G02*
X148345000Y-70870300I0J-342500D01*
G01*
G37*
G36*
G01*
X150885000Y-70870300D02*
X150885000Y-74485300D01*
G75*
G02*
X150542500Y-74827800I-342500J0D01*
G01*
X149857500Y-74827800D01*
G75*
G02*
X149515000Y-74485300I0J342500D01*
G01*
X149515000Y-70870300D01*
G75*
G02*
X149857500Y-70527800I342500J0D01*
G01*
X150542500Y-70527800D01*
G75*
G02*
X150885000Y-70870300I0J-342500D01*
G01*
G37*
%TD*%
%TO.C,D1*%
G36*
G01*
X141345000Y-82994700D02*
X141345000Y-86609700D01*
G75*
G02*
X141002500Y-86952200I-342500J0D01*
G01*
X140317500Y-86952200D01*
G75*
G02*
X139975000Y-86609700I0J342500D01*
G01*
X139975000Y-82994700D01*
G75*
G02*
X140317500Y-82652200I342500J0D01*
G01*
X141002500Y-82652200D01*
G75*
G02*
X141345000Y-82994700I0J-342500D01*
G01*
G37*
G36*
G01*
X143885000Y-82994700D02*
X143885000Y-86609700D01*
G75*
G02*
X143542500Y-86952200I-342500J0D01*
G01*
X142857500Y-86952200D01*
G75*
G02*
X142515000Y-86609700I0J342500D01*
G01*
X142515000Y-82994700D01*
G75*
G02*
X142857500Y-82652200I342500J0D01*
G01*
X143542500Y-82652200D01*
G75*
G02*
X143885000Y-82994700I0J-342500D01*
G01*
G37*
%TD*%
%TO.C,D2*%
G36*
G01*
X148345000Y-82994700D02*
X148345000Y-86609700D01*
G75*
G02*
X148002500Y-86952200I-342500J0D01*
G01*
X147317500Y-86952200D01*
G75*
G02*
X146975000Y-86609700I0J342500D01*
G01*
X146975000Y-82994700D01*
G75*
G02*
X147317500Y-82652200I342500J0D01*
G01*
X148002500Y-82652200D01*
G75*
G02*
X148345000Y-82994700I0J-342500D01*
G01*
G37*
G36*
G01*
X150885000Y-82994700D02*
X150885000Y-86609700D01*
G75*
G02*
X150542500Y-86952200I-342500J0D01*
G01*
X149857500Y-86952200D01*
G75*
G02*
X149515000Y-86609700I0J342500D01*
G01*
X149515000Y-82994700D01*
G75*
G02*
X149857500Y-82652200I342500J0D01*
G01*
X150542500Y-82652200D01*
G75*
G02*
X150885000Y-82994700I0J-342500D01*
G01*
G37*
%TD*%
%TO.C,D3*%
G36*
G01*
X153015000Y-80547500D02*
X153015000Y-76932500D01*
G75*
G02*
X153357500Y-76590000I342500J0D01*
G01*
X154042500Y-76590000D01*
G75*
G02*
X154385000Y-76932500I0J-342500D01*
G01*
X154385000Y-80547500D01*
G75*
G02*
X154042500Y-80890000I-342500J0D01*
G01*
X153357500Y-80890000D01*
G75*
G02*
X153015000Y-80547500I0J342500D01*
G01*
G37*
G36*
G01*
X150475000Y-80547500D02*
X150475000Y-76932500D01*
G75*
G02*
X150817500Y-76590000I342500J0D01*
G01*
X151502500Y-76590000D01*
G75*
G02*
X151845000Y-76932500I0J-342500D01*
G01*
X151845000Y-80547500D01*
G75*
G02*
X151502500Y-80890000I-342500J0D01*
G01*
X150817500Y-80890000D01*
G75*
G02*
X150475000Y-80547500I0J342500D01*
G01*
G37*
%TD*%
%TO.C,D4*%
G36*
G01*
X146015000Y-80547500D02*
X146015000Y-76932500D01*
G75*
G02*
X146357500Y-76590000I342500J0D01*
G01*
X147042500Y-76590000D01*
G75*
G02*
X147385000Y-76932500I0J-342500D01*
G01*
X147385000Y-80547500D01*
G75*
G02*
X147042500Y-80890000I-342500J0D01*
G01*
X146357500Y-80890000D01*
G75*
G02*
X146015000Y-80547500I0J342500D01*
G01*
G37*
G36*
G01*
X143475000Y-80547500D02*
X143475000Y-76932500D01*
G75*
G02*
X143817500Y-76590000I342500J0D01*
G01*
X144502500Y-76590000D01*
G75*
G02*
X144845000Y-76932500I0J-342500D01*
G01*
X144845000Y-80547500D01*
G75*
G02*
X144502500Y-80890000I-342500J0D01*
G01*
X143817500Y-80890000D01*
G75*
G02*
X143475000Y-80547500I0J342500D01*
G01*
G37*
%TD*%
%TO.C,D5*%
G36*
G01*
X139015000Y-80547500D02*
X139015000Y-76932500D01*
G75*
G02*
X139357500Y-76590000I342500J0D01*
G01*
X140042500Y-76590000D01*
G75*
G02*
X140385000Y-76932500I0J-342500D01*
G01*
X140385000Y-80547500D01*
G75*
G02*
X140042500Y-80890000I-342500J0D01*
G01*
X139357500Y-80890000D01*
G75*
G02*
X139015000Y-80547500I0J342500D01*
G01*
G37*
G36*
G01*
X136475000Y-80547500D02*
X136475000Y-76932500D01*
G75*
G02*
X136817500Y-76590000I342500J0D01*
G01*
X137502500Y-76590000D01*
G75*
G02*
X137845000Y-76932500I0J-342500D01*
G01*
X137845000Y-80547500D01*
G75*
G02*
X137502500Y-80890000I-342500J0D01*
G01*
X136817500Y-80890000D01*
G75*
G02*
X136475000Y-80547500I0J342500D01*
G01*
G37*
%TD*%
%TO.C,D6*%
G36*
G01*
X141345000Y-70870300D02*
X141345000Y-74485300D01*
G75*
G02*
X141002500Y-74827800I-342500J0D01*
G01*
X140317500Y-74827800D01*
G75*
G02*
X139975000Y-74485300I0J342500D01*
G01*
X139975000Y-70870300D01*
G75*
G02*
X140317500Y-70527800I342500J0D01*
G01*
X141002500Y-70527800D01*
G75*
G02*
X141345000Y-70870300I0J-342500D01*
G01*
G37*
G36*
G01*
X143885000Y-70870300D02*
X143885000Y-74485300D01*
G75*
G02*
X143542500Y-74827800I-342500J0D01*
G01*
X142857500Y-74827800D01*
G75*
G02*
X142515000Y-74485300I0J342500D01*
G01*
X142515000Y-70870300D01*
G75*
G02*
X142857500Y-70527800I342500J0D01*
G01*
X143542500Y-70527800D01*
G75*
G02*
X143885000Y-70870300I0J-342500D01*
G01*
G37*
%TD*%
M02*
